<svg width="18" height="22" viewBox="0 0 18 22" version="1.1" xmlns="http://www.w3.org/2000/svg"><title>snack</title><g id="Design" stroke="none" stroke-width="1" fill="none" fill-rule="evenodd"><g id="How-We-Do-It-" transform="translate(-507 -2399)" fill="#FFF" fill-rule="nonzero"><g id="timeline" transform="translate(499 1956)"><g id="icons" transform="translate(2 5)"><g id="snack" transform="translate(6 438)"><path d="M9.506 6.25a17.284 17.284 0 0 1 1.815-2.41h.001c.671-.738 1.984-1.685 1.984-1.685.198-.143.177-.342-.048-.442l-1.587-.71a.597.597 0 0 0-.679.163S9.818 2.778 8.436 6.209C4.163 4.36.102 6.95.102 11.456c0 4.705 3.783 11.854 8.899 9.696 5.388 2.231 8.901-4.99 8.901-9.696 0-4.545-3.65-7.209-8.396-5.206z" id="Shape"/><path d="M7.599 4.726c.219-.02.413-.23.43-.465 0 0 .141-1.84-1.048-3.124C5.788-.148 4.085.006 4.085.006c-.22.02-.413.229-.431.465 0 0-.143 1.84 1.048 3.125 1.19 1.283 2.897 1.13 2.897 1.13z" id="Shape"/></g></g></g></g></g></svg>