<svg width="21" height="21" viewBox="0 0 21 21" version="1.1" xmlns="http://www.w3.org/2000/svg"><title>meal</title><g id="Design" stroke="none" stroke-width="1" fill="none" fill-rule="evenodd"><g id="How-We-Do-It-" transform="translate(-506 -2016)" fill="#FFF" fill-rule="nonzero"><g id="timeline" transform="translate(499 1956)"><g id="icons" transform="translate(2 5)"><g id="meal" transform="translate(5 55)"><path d="M14.156 11.118c4.3-4.062 7.95-8.316 6.534-10.838-.154-.272-.36-.427-.729-.079l-8.843 8.365 3.038 2.552zM9.29 12.353l-6.145 5.692c-.684.634-1.039 1.462-.122 2.31 1.01.933 2.024.77 2.667.043l5.428-6.143-1.827-1.902z" id="Shape"/><path d="M8.874 7.495c.733-1.373.567-3.706-1.368-5.641S2.496-.676.91.91c-1.585 1.586-.99 4.661.944 6.596 1.935 1.935 4.268 2.102 5.64 1.369l10.153 11.46c.81.911 1.774.869 2.665-.022.892-.893.934-1.856.023-2.666L8.874 7.495z" id="Shape"/></g></g></g></g></g></svg>