<svg width="21" height="21" viewBox="0 0 21 21" version="1.1" xmlns="http://www.w3.org/2000/svg"><title>cocktail</title><g id="Design" stroke="none" stroke-width="1" fill="none" fill-rule="evenodd"><g id="How-We-Do-It-" transform="translate(-506 -2553)" fill="#FFF" fill-rule="nonzero"><g id="timeline" transform="translate(499 1956)"><g id="icons" transform="translate(2 5)"><g id="cocktail" transform="translate(5 592)"><path d="M20.965 6.39L18.34.266a.438.438 0 0 0-.509-.253l-7 1.75a.438.438 0 0 0-.075.823l4.415 2.006-.697 1.533h-7.35l-.763-3.05A1.749 1.749 0 0 0 4.663 1.75H.438a.437.437 0 1 0 0 .875h4.225c.402 0 .751.273.848.663l.71 2.837H4.698a.438.438 0 0 0-.387.233A7.018 7.018 0 0 0 3.5 9.625c0 3.563 2.677 6.506 6.125 6.94v2.685H7.437a.437.437 0 0 0-.437.438v.874c0 .242.196.438.437.438h6.125a.437.437 0 0 0 .438-.438v-.874a.437.437 0 0 0-.438-.438h-2.187v-2.686c3.447-.433 6.125-3.376 6.125-6.939 0-1.133-.28-2.263-.811-3.267a.438.438 0 0 0-.387-.233h-.867l.532-1.17 4.414 2.006a.435.435 0 0 0 .487-.086.438.438 0 0 0 .097-.485zM4.445 8.75A6.019 6.019 0 0 1 4.968 7h1.471l.438 1.75H4.445zm8.836 0H7.779L7.342 7h6.734l-.795 1.75zM16.03 7c.268.559.438 1.145.524 1.75h-2.313L15.037 7h.995z" id="Shape"/></g></g></g></g></g></svg>