<svg width="19" height="26" viewBox="0 0 19 26" version="1.1" xmlns="http://www.w3.org/2000/svg"><title>equipment</title><g id="Design" stroke="none" stroke-width="1" fill="none" fill-rule="evenodd"><g id="How-We-Do-It-" transform="translate(-505 -2064)"><g id="timeline" transform="translate(499 1956)"><g id="icons" transform="translate(2 5)"><g id="equipment" transform="translate(5 104)"><g id="Group"><path d="M6 0a1.93 1.93 0 0 1 1.924 1.929V24.67h-3.77V1.929C4.154.884 5.001 0 6.001 0z" id="Shape" stroke="#FFF" stroke-width=".5" stroke-linecap="round" stroke-linejoin="round"/><path id="Shape" stroke="#FFF" stroke-width=".5" stroke-linecap="round" stroke-linejoin="round" d="M4.154 9.322h3.77v7.875h-3.77z"/><rect id="Rectangle-path" stroke="#FFF" stroke-width=".5" stroke-linecap="round" stroke-linejoin="round" x="4.154" y="11.009" width="3.785" height="4.494" rx="1.05"/><path d="M1.385 10.125v13.42M0 21.456h2.693m13.078-11.331v13.42m-1.461-2.089h2.77M14.95 0a1.93 1.93 0 0 1 1.924 1.929V24.67h-3.77V1.929C13.104.884 13.951 0 14.951 0z" id="Shape" stroke="#FFF" stroke-width=".5" stroke-linecap="round" stroke-linejoin="round"/><path id="Shape" stroke="#FFF" stroke-width=".5" stroke-linecap="round" stroke-linejoin="round" d="M13.104 9.322h3.77v7.875h-3.77z"/><rect id="Rectangle-path" stroke="#FFF" stroke-width=".5" stroke-linecap="round" stroke-linejoin="round" x="13.104" y="11.009" width="3.785" height="4.494" rx="1.05"/><path d="M7.924 9.322V1.929A1.93 1.93 0 0 0 6.001 0C5 0 4.154.884 4.154 1.929v7.393h3.77zm5.18-7.393v7.393h3.77V1.929A1.93 1.93 0 0 0 14.951 0c-1 0-1.847.884-1.847 1.929zm-5.18 15.268h-3.77v7.473h3.77zm5.18 0v7.473h3.77v-7.473z" id="Shape" fill="#FFF"/></g></g></g></g></g></g></svg>