<svg width="27" height="17" viewBox="0 0 27 17" version="1.1" xmlns="http://www.w3.org/2000/svg"><title>picnic</title><g id="Design" stroke="none" stroke-width="1" fill="none" fill-rule="evenodd"><g id="How-We-Do-It-" transform="translate(-503 -2262)" fill="#FFF" fill-rule="nonzero"><g id="timeline" transform="translate(499 1956)"><g id="icons" transform="translate(2 5)"><g id="picnic" transform="translate(2 301)"><g id="Group"><path d="M.187 7.153s-.093.77.5 1.604c.593.834 5.149 7.409 5.149 7.409S6.554 17 7.303 17h11.983s.999-.128 1.467-.834c.5-.706 5.15-7.41 5.15-7.41s.56-.962.498-1.603H.187zm18.756-.417l-1.841-1.893h-6.71l-1.81 1.893zM6.616 4.843s-.749.834.094 1.86L.218 6.64s-.03-.45.874-1.797h5.524zM20.69 6.736s.968-.77.125-1.86h4.713s.936 1.026.905 1.86H20.69z" id="Shape"/><path d="M12.92.32a.96.96 0 0 0-1.373 0L6.99 5.037c-.374.385-.374.994 0 1.411.375.385.968.385 1.374 0l4.587-4.715c.375-.449.375-1.026-.031-1.411zm1.654 0a1.027 1.027 0 0 0 0 1.412l4.587 4.683c.375.385.968.385 1.373 0 .375-.385.375-.994 0-1.411L15.916.32c-.406-.385-.999-.385-1.342 0z" id="Shape"/></g></g></g></g></g></g></svg>