<svg width="24" height="19" viewBox="0 0 24 19" version="1.1" xmlns="http://www.w3.org/2000/svg"><title>relax</title><g id="Design" stroke="none" stroke-width="1" fill="none" fill-rule="evenodd"><g id="How-We-Do-It-" transform="translate(-505 -2452)" fill="#FFF" fill-rule="nonzero"><g id="timeline" transform="translate(499 1956)"><g id="icons" transform="translate(2 5)"><g id="relax" transform="translate(4 491)"><path d="M18.813 18.82c-.498 0-.904-.44-.904-.979v-.979h.904c1.44 0 1.807-.53 1.807-.53v1.51c0 .539-.405.978-.903.978h-.904zm-15.366 0c-.499 0-.904-.44-.904-.979v-1.51s.367.531 1.807.531h.904v.98c0 .539-.406.978-.904.978h-.903zM23.163 8.539c0-1.25-.936-2.265-2.09-2.265-.897 0-1.657.615-1.953 1.475l-.992 2.405c-.074-.05-3.072-1.07-6.49-1.07-3.419 0-6.536 1.025-6.611 1.076l-.94-2.257c-.254-.938-1.047-1.628-1.996-1.628C.936 6.275 0 7.288 0 8.54c0 1.04.653 1.908 1.536 2.174l.387 3.602c.408 1.529 2.427 1.567 2.427 1.567h14.463s2.019-.038 2.427-1.569l.387-3.602c.883-.265 1.536-1.132 1.536-2.173z" id="Shape"/><path d="M2.09 5.099c1.367 0 2.594.977 3.014 2.387l.458 1.102c.885-.346 4.066-.679 6.076-.679 1.956 0 5.092.31 5.96.652l.52-1.262c.47-1.318 1.654-2.2 2.955-2.2.096 0 .187.021.282.03l.001-.018c0-2.603-1.947-4.713-4.35-4.713H6.159c-2.402 0-4.35 2.109-4.35 4.713v.018c.095-.008.186-.03.282-.03z" id="Shape"/></g></g></g></g></g></svg>