<svg width="24" height="26" viewBox="0 0 24 26" version="1.1" xmlns="http://www.w3.org/2000/svg"><title>ski</title><g id="Design" stroke="none" stroke-width="1" fill="none" fill-rule="evenodd"><g id="How-We-Do-It-" transform="translate(-502 -2189)" fill="#FFF" fill-rule="nonzero"><g id="timeline" transform="translate(499 1956)"><g id="icons" transform="translate(2 5)"><g id="ski" transform="rotate(17 -748.292 138.882)"><ellipse id="Oval" cx="13.905" cy="2.542" rx="2.515" ry="2.527"/><path d="M23.662 21.76H9.235l3.474-6.687a1.385 1.385 0 0 0-.019-1.31 1.372 1.372 0 0 0-1.1-.703l-5.203-.377 4.818-4.177 2.126 2.07a1.37 1.37 0 0 0 1.48.284l3.607-1.5-2.069 12.042a.306.306 0 0 0 .3.358.306.306 0 0 0 .3-.254l2.136-12.422.147-.062a1.38 1.38 0 0 0 .743-1.8 1.37 1.37 0 0 0-1.792-.747l-3.589 1.492-3.087-3.007c-.006-.007-.014-.01-.02-.016A2.279 2.279 0 0 0 8.41 4.86l-7.24 6.278a2.304 2.304 0 0 0-.238 3.24c.266.309.596.527.953.656.142.064.295.107.456.118l.046.004c.066.008.132.012.198.014l6.725.488-2.692 5.182a1.372 1.372 0 0 0-.12.919H.87a.611.611 0 0 0 0 1.224h22.791a.611.611 0 1 0 0-1.225z" id="Shape"/></g></g></g></g></g></svg>