<svg width="16" height="27" viewBox="0 0 16 27" version="1.1" xmlns="http://www.w3.org/2000/svg"><title>stretch</title><g id="Design" stroke="none" stroke-width="1" fill="none" fill-rule="evenodd"><g id="How-We-Do-It-" transform="translate(-509 -1961)" fill="#FFF" fill-rule="nonzero"><g id="timeline" transform="translate(499 1956)"><g id="icons" transform="translate(2 5)"><g id="stretch" transform="translate(8)"><path d="M12.488 22.445a33.106 33.106 0 0 0-.517-.083c-.412-.064-.523-.081-1.005-.245-.19-.065-.932-.883-.932-2.485 0-2.064.448-3.887.64-4.575.006-.017.018-.07.036-.14.032-.129.266-.909.266-.909.126-.396.258-.807.343-1.228l.004-.022c.129-.61.551-2.841.581-5.927 0-.311-.237-.582-.378-.744-.026-.03-.049-.056-.066-.078a28.217 28.217 0 0 0-.523-.634 91.692 91.692 0 0 1-.45-.539c-.26-.314-.55-.601-.83-.879-.345-.341-.701-.694-.994-1.092-.437-.594-.842-1.635-.768-2.473a.42.42 0 0 0-.076-.308.223.223 0 0 0-.264-.065.223.223 0 0 0-.264.065.42.42 0 0 0-.075.308c.073.838-.332 1.879-.77 2.473-.292.398-.648.75-.993 1.092-.28.278-.57.565-.83.879-.162.197-.313.376-.45.54-.207.247-.387.46-.523.633-.017.022-.04.048-.066.078-.141.162-.378.433-.378.746.03 3.084.452 5.315.58 5.925l.005.022c.085.421.217.832.343 1.228 0 0 .234.78.266.91l.035.14c.193.687.641 2.51.641 4.574 0 1.602-.742 2.42-.932 2.485-.482.164-.593.18-1.005.245-.134.02-.299.046-.517.083C.255 22.72 0 24.004 0 24.543c0 .144.068.614.38 1.047.281.389.84.852 1.91.852.161 0 .33-.01.505-.03.712-.084 1.43-.21 2.124-.331.252-.044.504-.088.756-.13.336-.057.94-.094 1.798-.111l.082-.002.082.002c.857.017 1.462.054 1.798.11l.756.13c.694.122 1.412.248 2.124.331.174.021.344.031.505.031 1.07 0 1.629-.463 1.91-.852.312-.433.38-.903.38-1.047 0-.54-.255-1.823-2.622-2.098zM8.806 11.937a.218.218 0 0 1-.102-.025c-.11-.048-.251-.278-.265-.367.549-.417.92-1.209.92-2.118 0-1.341-.13-2.43-1.804-2.43s-1.803 1.089-1.803 2.43c0 .91.37 1.7.918 2.118a.742.742 0 0 1-.264.367.218.218 0 0 1-.102.025c-.353 0-.794-.843-.91-1.178-.198-.57-.445-1.55-.498-2.98l-.002-.055c-.013-.301.402-1.072.457-1.203.076-.182 1.057-1.816 1.348-2.203.103-.137.626-.895.856-1.23.23.335.753 1.093.856 1.23.291.387 1.272 2.021 1.348 2.203.055.131.47.902.457 1.203l-.002.055c-.053 1.43-.3 2.41-.498 2.98-.116.335-.557 1.178-.91 1.178z" id="Shape"/></g></g></g></g></g></svg>