<svg viewBox="0 0 512 512" xmlns="http://www.w3.org/2000/svg"><title/><g data-name="1-Sun" id="_1-Sun"><path d="M256 379a123 123 0 1 1 123-123 123.14 123.14 0 0 1-123 123zm0-230a107 107 0 1 0 107 107 107.12 107.12 0 0 0-107-107z"/><path d="M178.88 264a8 8 0 0 1-8-8A85.22 85.22 0 0 1 256 170.88a8 8 0 0 1 0 16A69.2 69.2 0 0 0 186.88 256a8 8 0 0 1-8 8zM256 108.77a8 8 0 0 1-8-8v-53a8 8 0 0 1 16 0v53a8 8 0 0 1-8 8zm0 363.44a8 8 0 0 1-8-8v-53a8 8 0 0 1 16 0v53a8 8 0 0 1-8 8zM464.21 264h-53a8 8 0 0 1 0-16h53a8 8 0 1 1 0 16zm-363.44 0h-53a8 8 0 0 1 0-16h53a8 8 0 0 1 0 16zm265-109.77a8 8 0 0 1-5.66-13.65l37.46-37.47a8 8 0 1 1 11.32 11.32l-37.47 37.46a8 8 0 0 1-5.65 2.34zm-257 257a8 8 0 0 1-5.66-13.66l37.47-37.46a8 8 0 1 1 11.31 11.31l-37.46 37.47a8 8 0 0 1-5.66 2.34zm294.46 0a8 8 0 0 1-5.66-2.34l-37.46-37.47a8 8 0 1 1 11.31-11.31l37.47 37.46a8 8 0 0 1-5.66 13.66zm-257-257a8 8 0 0 1-5.65-2.34l-37.47-37.46a8 8 0 0 1 11.32-11.32l37.46 37.47a8 8 0 0 1-5.66 13.65zm51.06-33.93a8 8 0 0 1-7.41-5l-10-24.55a8.09 8.09 0 0 1-.6-3 8 8 0 0 1 15.41-3l10 24.55a7.91 7.91 0 0 1 .6 3 8 8 0 0 1-5 7.4 7.86 7.86 0 0 1-3 .6zm118.8.57a8 8 0 0 1-8-8 8.29 8.29 0 0 1 .63-3.1L319 85.31a8 8 0 0 1 15.38 3.1 7.84 7.84 0 0 1-.63 3.09L323.47 116a8 8 0 0 1-7.38 4.87zm83.61 84.42a8 8 0 0 1-7.4-5 7.86 7.86 0 0 1-.6-3 8 8 0 0 1 5-7.41l24.55-10a8 8 0 0 1 10.43 4.38 7.89 7.89 0 0 1 .6 3 8 8 0 0 1-5 7.41l-24.55 10a7.91 7.91 0 0 1-3.03.62zm23.89 129.08a7.87 7.87 0 0 1-3.09-.63L396 323.47a8 8 0 1 1 6.2-14.75L426.69 319a8 8 0 0 1-3.1 15.38zm-98.84 97.89a8 8 0 0 1-7.41-5l-10-24.55a7.91 7.91 0 0 1-.6-3 8 8 0 0 1 15.41-3l10 24.55a8.09 8.09 0 0 1 .6 3 8 8 0 0 1-5 7.41 7.89 7.89 0 0 1-3 .59zm-139.12-.67a8.13 8.13 0 0 1-3.1-.62 8 8 0 0 1-4.9-7.38 7.84 7.84 0 0 1 .63-3.09l10.27-24.5a8 8 0 0 1 15.38 3.1 8.29 8.29 0 0 1-.63 3.1L193 426.69a8 8 0 0 1-7.37 4.9zm-97.88-98.84a8 8 0 0 1-7.41-5 7.89 7.89 0 0 1-.6-3 8 8 0 0 1 5-7.41l24.55-10a8 8 0 0 1 10.43 4.38 7.86 7.86 0 0 1 .6 3 8 8 0 0 1-5 7.41l-24.55 10a8.09 8.09 0 0 1-3.02.62zm25.12-128.84a8.14 8.14 0 0 1-3.1-.63L85.31 193a8 8 0 1 1 6.19-14.75l24.5 10.28a8 8 0 0 1-3.1 15.38z"/></g></svg>