<svg viewBox="0 0 512 512" xmlns="http://www.w3.org/2000/svg"><title/><path d="M421.11 262.13c.09-2 .13-4.09.13-6.13 0-73.77-60-133.79-133.79-133.79a132.36 132.36 0 0 0-83.26 29.05 134.71 134.71 0 0 0-44.19 64 89.79 89.79 0 1 0-29.8 174.5H407a64.62 64.62 0 0 0 14.16-127.66zM407 373.79H130.21a73.77 73.77 0 1 1 62.86-112.4 8 8 0 1 0 13.62-8.39 89.88 89.88 0 0 0-32-31 117.8 117.8 0 0 1 230.57 34c0 4-.2 8.07-.6 12.05a8 8 0 0 0 7.17 8.77 48.61 48.61 0 0 1-4.86 97z" data-name="6-Cloud" id="_6-Cloud"/></svg>