<svg viewBox="0 0 512 512" xmlns="http://www.w3.org/2000/svg"><title/><path d="M421.11 197.59q.13-3.08.13-6.13c0-73.78-60-133.8-133.79-133.8a132.37 132.37 0 0 0-83.26 29.06 134.68 134.68 0 0 0-44.19 64 89.79 89.79 0 1 0-29.79 174.51H407a64.62 64.62 0 0 0 14.16-127.66zM407 309.25H130.21a73.77 73.77 0 1 1 62.86-112.4 8 8 0 1 0 13.62-8.39 89.82 89.82 0 0 0-32-31.05 117.8 117.8 0 0 1 230.57 34.05c0 4-.2 8.08-.6 12a8 8 0 0 0 7.17 8.77 48.61 48.61 0 0 1-4.86 97zm-32.79 66.37l-10.09-5.83 10.09-5.79a8 8 0 0 0-8-13.86l-10.09 5.83v-11.7a8 8 0 0 0-16 0v11.66L330 350.1a8 8 0 1 0-8 13.9l10.1 5.83-10.1 5.79a8 8 0 0 0 8 13.86l10.1-5.83v11.66a8 8 0 1 0 16 0v-11.66l10.09 5.83a8 8 0 0 0 8-13.86zm-181.3-22.15a8 8 0 0 0-10.91-2.93l-10.1 5.83v-11.66a8 8 0 0 0-16 0v11.66l-10.09-5.83a8 8 0 1 0-8 13.85l10.09 5.83-10.09 5.83a8 8 0 0 0 8 13.86l10.09-5.83v11.66a8 8 0 0 0 16 0v-11.66l10.1 5.83a8 8 0 0 0 8-13.86l-10.1-5.83 10.1-5.83a8 8 0 0 0 2.91-10.92zM285 404.06a8 8 0 0 0-10.93-2.92L264 407v-11.69a8 8 0 1 0-16 0V407l-10.1-5.83a8 8 0 1 0-8 13.85l10.1 5.83-10.1 5.83a8 8 0 0 0 4 14.93 7.92 7.92 0 0 0 4-1.07l10.1-5.83v11.66a8 8 0 0 0 16 0v-11.69l10.1 5.83a7.92 7.92 0 0 0 4 1.07 8 8 0 0 0 4-14.93l-10.1-5.83 10.1-5.82a8 8 0 0 0 2.9-10.94z" data-name="23-Heavy snow" id="_23-Heavy_snow"/></svg>