<svg width="52" height="48" viewBox="0 0 52 48" version="1.1" xmlns="http://www.w3.org/2000/svg"><title>noun_18197_cc</title><defs><filter x="-.5%" y="-.8%" width="100.9%" height="120%" filterUnits="objectBoundingBox" id="filter-1"><feOffset dx="0" dy="2" in="SourceAlpha" result="shadowOffsetOuter1"/><feGaussianBlur stdDeviation="2" in="shadowOffsetOuter1" result="shadowBlurOuter1"/><feColorMatrix values="0 0 0 0 0 0 0 0 0 0 0 0 0 0 0 0 0 0 0 0" type="matrix" in="shadowBlurOuter1" result="shadowMatrixOuter1"/><feMerge><feMergeNode in="shadowMatrixOuter1"/><feMergeNode in="SourceGraphic"/></feMerge></filter></defs><g id="Design" stroke="none" stroke-width="1" fill="none" fill-rule="evenodd"><g id="Home" transform="translate(-1269 -1207)" fill="#E3190F" fill-rule="nonzero"><g id="Slide-1:-Splash-Introduction" filter="url(#filter-1)" transform="translate(0 847)"><g id="Content" transform="translate(0 46)"><g transform="translate(0 -16)" id="Logos"><g id="Item" transform="translate(1211 314)"><g id="noun_18197_cc" transform="translate(62 17)"><path id="Shape" d="M30.828 9.095l-2.194 8.377L26.05 6.597l-2.944 8.833L18.86 0l-5.194 21.846-3.076-6.4L0 40.24h11.359v-1.05H7.507l1.792-3.424H8.247l2.265-3.423H9.46l2.5-3.425 2.427 3.425h-1.052l2.264 3.423h-1.051l1.792 3.424h-3.8v1.049h13.612v-2.618h-7.29l3.392-6.479h-1.99l4.285-6.48h-1.99l4.733-6.48 4.59 6.48h-1.99l4.285 6.48h-1.99l3.393 6.48h-7.194v2.617h15.19z"/></g></g></g></g></g></g></g></svg>