<svg width="43" height="43" viewBox="0 0 43 43" version="1.1" xmlns="http://www.w3.org/2000/svg"><title>icon</title><defs><filter x="-.5%" y="-.8%" width="100.9%" height="120%" filterUnits="objectBoundingBox" id="filter-1"><feOffset dx="0" dy="2" in="SourceAlpha" result="shadowOffsetOuter1"/><feGaussianBlur stdDeviation="2" in="shadowOffsetOuter1" result="shadowBlurOuter1"/><feColorMatrix values="0 0 0 0 0 0 0 0 0 0 0 0 0 0 0 0 0 0 0 0" type="matrix" in="shadowBlurOuter1" result="shadowMatrixOuter1"/><feMerge><feMergeNode in="shadowMatrixOuter1"/><feMergeNode in="SourceGraphic"/></feMerge></filter></defs><g id="Design" stroke="none" stroke-width="1" fill="none" fill-rule="evenodd"><g id="Home" transform="translate(-822 -1128)" fill="#999" fill-rule="nonzero"><g id="Slide-1:-Splash-Introduction" filter="url(#filter-1)" transform="translate(0 847)"><g id="icon" transform="translate(825 282)"><path d="M24.79 15.17a.715.715 0 0 0 1.036 0l5.624-5.624.888.888c.666.666 1.776.37 1.998-.592L36.26 2.22A1.271 1.271 0 0 0 34.78.74l-7.622 1.85c-.888.222-1.184 1.332-.592 1.998l.888.888L21.83 11.1a.715.715 0 0 0 0 1.036l2.96 3.034zm-12.58 6.66a.715.715 0 0 0-1.036 0L5.55 27.454l-.962-.814c-.666-.666-1.776-.37-1.998.592L.74 34.78a1.271 1.271 0 0 0 1.48 1.48l7.622-1.85c.888-.222 1.184-1.332.592-1.998l-.888-.888L15.17 25.9a.715.715 0 0 0 0-1.036l-2.96-3.034zm22.2 5.328c-.222-.888-1.332-1.184-1.998-.592l-.888.888L25.9 21.83a.715.715 0 0 0-1.036 0l-2.96 2.96a.715.715 0 0 0 0 1.036l5.624 5.624-.888.962c-.666.666-.37 1.776.592 1.998l7.548 1.85a1.153 1.153 0 0 0 1.406-1.406l-1.776-7.696zM9.472 5.476l.888-.888c.666-.666.37-1.776-.592-1.998L2.22.74A1.271 1.271 0 0 0 .74 2.22l1.85 7.622c.222.888 1.332 1.184 1.998.592l.888-.888L11.1 15.17a.715.715 0 0 0 1.036 0l2.96-2.96a.715.715 0 0 0 0-1.036L9.472 5.476z" id="Shape"/></g></g></g></g></svg>