<svg width="49" height="43" viewBox="0 0 49 43" version="1.1" xmlns="http://www.w3.org/2000/svg"><title>noun_45483_cc</title><defs><filter x="-.5%" y="-.8%" width="100.9%" height="120%" filterUnits="objectBoundingBox" id="filter-1"><feOffset dx="0" dy="2" in="SourceAlpha" result="shadowOffsetOuter1"/><feGaussianBlur stdDeviation="2" in="shadowOffsetOuter1" result="shadowBlurOuter1"/><feColorMatrix values="0 0 0 0 0 0 0 0 0 0 0 0 0 0 0 0 0 0 0.5 0" type="matrix" in="shadowBlurOuter1" result="shadowMatrixOuter1"/><feMerge><feMergeNode in="shadowMatrixOuter1"/><feMergeNode in="SourceGraphic"/></feMerge></filter></defs><g id="Design" stroke="none" stroke-width="1" fill="none" fill-rule="evenodd" opacity="1"><g id="Home" transform="translate(-968 -1262)" fill="#E3190F"><g id="Slide-1:-Splash-Introduction" filter="url(#filter-1)" transform="translate(0 847)"><g id="Content" transform="translate(0 46)"><g transform="translate(0 -16)" id="Logos"><g id="Item" transform="translate(909 366)"><g id="noun_45483_cc" transform="translate(63 21)"><path d="M10.125 9.003C7.306 9.003 5 11.82 5 15.408s2.306 6.406 5.125 6.406c1.025 0 2.016-.512 3.044-1.28-.256-.77-.482-1.538-.482-2.563 0-2.306.735-4.133 1.763-5.927C13.68 10.25 11.92 9 10.125 9v.003zm20.623 0c-1.794 0-3.554 1.247-4.325 3.044 1.025 1.793 1.763 3.62 1.763 5.926 0 1.025-.226 1.794-.482 2.563 1.025.768 2.017 1.28 3.044 1.28 2.819 0 5.125-2.818 5.125-6.405s-2.306-6.406-5.125-6.406v-.002zM20.125 12C17.293 12 15 14.867 15 18.406c0 3.538 2.293 6.406 5.125 6.406 2.831 0 5.124-2.868 5.124-6.406 0-3.539-2.293-6.406-5.124-6.406zM4.884 21.814C2.32 22.07 0 24.12 0 26.94v5.125h7.687V29.5c0-2.05.802-3.843 2.083-5.124-1.793-.257-3.602-1.025-4.884-2.563h-.002zm31.23 0c-1.282 1.538-3.09 2.306-4.884 2.563 1.281 1.28 2.083 3.074 2.083 5.124v2.563H41v-5.125c0-2.819-2.321-4.869-4.884-5.125h-.002zm-20.98 2.563c-2.563.256-4.885 2.306-4.885 5.124v5.125h20.5v-5.125c0-2.818-2.322-4.868-4.885-5.124-1.537 1.537-3.315 2.562-5.365 2.562-2.05 0-3.828-1.025-5.366-2.562z" id="Shape" fill-rule="nonzero"/><path d="M23.773 10.906C22.843 9.729 21.553 9 20.125 9s-2.72.73-3.648 1.906C15.564 9.749 15 8.16 15 6.406 15 2.867 17.293 0 20.125 0c2.831 0 5.124 2.867 5.124 6.406 0 1.754-.563 3.343-1.476 4.5z" id="Combined-Shape"/></g></g></g></g></g></g></g></svg>