<svg width="45" height="45" viewBox="0 0 45 45" version="1.1" xmlns="http://www.w3.org/2000/svg"><title>icon</title><defs><filter x="-.5%" y="-.8%" width="100.9%" height="120%" filterUnits="objectBoundingBox" id="filter-1"><feOffset dx="0" dy="2" in="SourceAlpha" result="shadowOffsetOuter1"/><feGaussianBlur stdDeviation="2" in="shadowOffsetOuter1" result="shadowBlurOuter1"/><feColorMatrix values="0 0 0 0 0 0 0 0 0 0 0 0 0 0 0 0 0 0 0 0" type="matrix" in="shadowBlurOuter1" result="shadowMatrixOuter1"/><feMerge><feMergeNode in="shadowMatrixOuter1"/><feMergeNode in="SourceGraphic"/></feMerge></filter></defs><g id="Design" stroke="none" stroke-width="1" fill="none" fill-rule="evenodd"><g id="Home" transform="translate(-602 -1089)" fill="#E3190F" fill-rule="nonzero"><g id="Slide-1:-Splash-Introduction" filter="url(#filter-1)" transform="translate(0 847)"><g id="icon" transform="translate(606 244)"><path d="M35.679 2.643H19.82V1.32a1.321 1.321 0 1 0-2.642 0v1.322H1.32a1.321 1.321 0 1 0 0 2.643h15.86V9.25h-1.686c-3.45 0-6.345 2.695-6.591 6.145l-.604 9.283a6.549 6.549 0 0 0 2.657 5.715h-2.84a6.596 6.596 0 0 0-5.498 2.942l-1.074 1.61a1.32 1.32 0 1 0 2.2 1.467l1.073-1.61a3.957 3.957 0 0 1 3.298-1.766h20.772c1.328 0 2.56.66 3.298 1.765l1.074 1.61a1.321 1.321 0 1 0 2.199-1.465l-1.074-1.61a6.595 6.595 0 0 0-5.497-2.943h-2.84a6.552 6.552 0 0 0 2.656-5.715l-.605-9.292c-.245-3.44-3.14-6.136-6.59-6.136H19.82V5.286h15.86a1.321 1.321 0 1 0 0-2.643zm-20.186 9.25h1.686v7.928c0 .73-.592 1.322-1.322 1.322h-3.27a1.322 1.322 0 0 1-1.32-1.407l.27-4.162a3.98 3.98 0 0 1 3.956-3.681zm6.014 0c2.07 0 3.807 1.617 3.954 3.673l.271 4.17a1.321 1.321 0 0 1-1.319 1.407h-3.27c-.73 0-1.322-.592-1.322-1.322v-7.928h1.686z" id="Shape"/></g></g></g></g></svg>