<svg width="45" height="40" viewBox="0 0 45 40" version="1.1" xmlns="http://www.w3.org/2000/svg"><title>Shape</title><defs><filter x="-.5%" y="-.8%" width="100.9%" height="120%" filterUnits="objectBoundingBox" id="filter-1"><feOffset dx="0" dy="2" in="SourceAlpha" result="shadowOffsetOuter1"/><feGaussianBlur stdDeviation="2" in="shadowOffsetOuter1" result="shadowBlurOuter1"/><feColorMatrix values="0 0 0 0 0 0 0 0 0 0 0 0 0 0 0 0 0 0 0.5 0" type="matrix" in="shadowBlurOuter1" result="shadowMatrixOuter1"/><feMerge><feMergeNode in="shadowMatrixOuter1"/><feMergeNode in="SourceGraphic"/></feMerge></filter></defs><g id="Design" stroke="none" stroke-width="1" fill="none" fill-rule="evenodd" opacity=".4"><g id="Home" transform="translate(-389 -1137)" fill="#000" fill-rule="nonzero"><g id="Slide-1:-Splash-Introduction" filter="url(#filter-1)" transform="translate(0 847)"><g id="Content" transform="translate(0 46)"><g transform="translate(0 -16)" id="Logos"><g id="Item" transform="translate(330 239)"><path d="M86.625 31.567l-4.878-4.812-4.879 4.812h9.757zm1.954 1.927H74.915l-3.777 3.724h21.217l-3.776-3.724zm5.73 5.652H69.185l-3.21 3.166H97.52l-3.21-3.166zm-14.78 9.18h1.662v1.642H79.53v-1.642zm5.088-4.088h-5.74V54.48h5.74V44.238zm-7.691 4.158V44.24H65.483v4.157h11.443zm0 1.927H65.483v4.157h11.444v-4.157h-.001zm9.64-6.085v4.157h11.445v-4.157H86.567zm11.445 6.085H86.567v4.157H98.01v-4.157zm-3.996-15.94V23.76h-7.423v3.304l-4.845-4.78L63 40.773l1.554 1.538 17.193-16.957 17.192 16.958 1.555-1.54-6.479-6.389z" id="Shape"/></g></g></g></g></g></g></svg>