<svg width="48" height="47" viewBox="0 0 48 47" version="1.1" xmlns="http://www.w3.org/2000/svg"><title>map-pin-marked</title><defs><filter x="-.5%" y="-.8%" width="100.9%" height="120%" filterUnits="objectBoundingBox" id="filter-1"><feOffset dx="0" dy="2" in="SourceAlpha" result="shadowOffsetOuter1"/><feGaussianBlur stdDeviation="2" in="shadowOffsetOuter1" result="shadowBlurOuter1"/><feColorMatrix values="0 0 0 0 0 0 0 0 0 0 0 0 0 0 0 0 0 0 0.5 0" type="matrix" in="shadowBlurOuter1" result="shadowMatrixOuter1"/><feMerge><feMergeNode in="shadowMatrixOuter1"/><feMergeNode in="SourceGraphic"/></feMerge></filter></defs><g id="Design" stroke="none" stroke-width="1" fill="none" fill-rule="evenodd" opacity=".4"><g id="Home" transform="translate(-198 -1225)" fill="#000" fill-rule="nonzero"><g id="Slide-1:-Splash-Introduction" filter="url(#filter-1)" transform="translate(0 847)"><g id="Content" transform="translate(0 46)"><g transform="translate(0 -16)" id="Logos"><g id="Item" transform="translate(139 329)"><g id="map-pin-marked" transform="translate(63 21)"><path d="M30 10.465C30 4.685 25.3 0 19.5 0S9 4.685 9 10.465C9 18.745 19.5 31 19.5 31S30 18.703 30 10.465zM14.321 9.84c0-2.851 2.32-5.162 5.18-5.162s5.178 2.31 5.178 5.162c0 2.851-2.319 5.162-5.179 5.162-2.86 0-5.179-2.311-5.179-5.162z" id="Shape"/><circle id="Oval" cx="19.5" cy="9.5" r="2.5"/><path d="M25.923 27a72.09 72.09 0 0 1-2.323 3.068c6.621.385 10.96 1.767 12.574 2.795-1.89 1.206-7.51 2.902-16.174 2.902-8.663 0-14.282-1.697-16.174-2.902 1.615-1.028 5.95-2.41 12.565-2.794a71.105 71.105 0 0 1-2.326-3.067C5.917 27.777 0 30.108 0 32.862 0 36.252 8.955 39 20 39c11.047 0 20-2.747 20-6.138.002-2.755-5.922-5.087-14.077-5.862z" id="Shape"/></g></g></g></g></g></g></g></svg>