<svg width="100" height="100" viewBox="0 0 100 100" version="1.1" xmlns="http://www.w3.org/2000/svg"><title>Group 31</title><g id="Design" stroke="none" stroke-width="1" fill="none" fill-rule="evenodd"><g id="Make-a-Booking:-Step-2" transform="translate(-375 -1490)"><g id="2" transform="translate(375 1425)"><g id="Group-7-Copy-3" transform="translate(0 65)"><g id="Group-31"><rect id="Rectangle-7" fill="#FFF" x="0" y="10" width="100" height="90" rx="15"/><path d="M92.188 64.844V23.438c0-4.308-3.505-7.813-7.813-7.813h-5.078v3.906a3.906 3.906 0 1 1-7.813 0v-3.906H53.711v3.906a3.906 3.906 0 1 1-7.813 0v-3.906H28.32v3.906a3.906 3.906 0 1 1-7.812 0v-3.906h-4.883c-4.308 0-7.813 3.505-7.813 7.813v60.937c0 4.308 3.505 7.813 7.813 7.813h68.75c4.308 0 7.813-3.505 7.813-7.813V64.844zm7.81 19.726C99.895 93.096 92.926 100 84.376 100h-68.75C7.009 100 0 92.99 0 84.375V23.437C0 14.822 7.01 7.813 15.625 7.813h4.883V3.906a3.906 3.906 0 1 1 7.812 0v3.906h17.578V3.906a3.906 3.906 0 1 1 7.813 0v3.906h17.773V3.906a3.906 3.906 0 1 1 7.813 0v3.906h5.078c8.616 0 15.625 7.01 15.625 15.625V84.57h-.001z" id="Combined-Shape" fill="#db0b00" fill-rule="nonzero"/></g></g></g></g></g></svg>