<svg width="65" height="91" viewBox="0 0 65 91" version="1.1" xmlns="http://www.w3.org/2000/svg" xmlns:xlink="http://www.w3.org/1999/xlink"><title>control</title><defs><path d="M1431 53.191c0-.469.177-.938.531-1.296l24.093-24.382-24.093-24.382a1.85 1.85 0 0 1 0-2.594 1.797 1.797 0 0 1 2.563 0l25.375 25.679a1.85 1.85 0 0 1 0 2.594l-25.375 25.678a1.797 1.797 0 0 1-2.563 0 1.84 1.84 0 0 1-.531-1.297z" id="path-1"/><filter x="-103.4%" y="-54.5%" width="306.9%" height="209%" filterUnits="objectBoundingBox" id="filter-2"><feOffset dx="0" dy="0" in="SourceAlpha" result="shadowOffsetOuter1"/><feGaussianBlur stdDeviation="10" in="shadowOffsetOuter1" result="shadowBlurOuter1"/><feColorMatrix values="0 0 0 0 0 0 0 0 0 0 0 0 0 0 0 0 0 0 0.5 0" type="matrix" in="shadowBlurOuter1"/></filter></defs><g id="Design" stroke="none" stroke-width="1" fill="none" fill-rule="evenodd"><g id="Home" transform="translate(-1413 -5485)" fill-rule="nonzero"><g id="Slide-5:-Testimonials" transform="translate(-20 4966)"><g id="Controls" transform="translate(20 537)"><g id="control"><use fill="#000" fill-opacity="1" filter="url(#filter-2)" xlink:href="#path-1"/><use fill="#FFF" fill-rule="evenodd" xlink:href="#path-1"/></g></g></g></g></g></svg>