<svg width="41" height="18" viewBox="0 0 41 18" version="1.1" xmlns="http://www.w3.org/2000/svg"><title>noun_1293419_cc</title><g id="Design" stroke="none" stroke-width="1" fill="none" fill-rule="evenodd"><g id="Home" transform="translate(-618 -6815)" fill="#FFF" fill-rule="nonzero"><g id="Footer" transform="translate(0 6719)"><g id="First-section" transform="translate(180 70)"><g id="Menu" transform="translate(438 24)"><g id="Item"><g id="noun_1293419_cc" transform="translate(0 2)"><path d="M36.748 14.74c5.05 0 4.198-4.287 4.198-4.287-1.886-5.193-8.64-5.495-8.64-5.495h-.8a1.17 1.17 0 0 0 .026-.247c0-.525-.347-.95-.776-.95h-.903l-.74-1.158h-.882V1.58h8.971c.255 0 .46-.15.46-.336 0-.185-.205-.335-.46-.335h-8.614a.63.63 0 0 0-.631-.6.63.63 0 0 0-.631.6H18.71c-.253 0-.46.15-.46.335 0 .186.207.336.46.336h8.972v1.023h-.881l-.74 1.157h-.858c-.429 0-.776.426-.776.95 0 .086.01.17.027.248H6.329l-2.633-3.87S3.194 0 1.232 0H0l2.282 4.957s-1.61 1.147.214 3.02l-.669 1.871h3.894l.608-2.354 12.167 1.992c0 5.193 4.746 5.254 4.746 5.254h2.311v2.112h-2.848l-1.319-1.308c-.149-.148-.45-.089-.672.132-.222.22-.283.52-.133.667l1.474 1.464c.067.118.164.193.273.193h14.844c.09 0 .171-.05.235-.135l1.534-1.522c.15-.148.09-.447-.133-.667-.223-.22-.524-.28-.672-.132l-1.32 1.308h-2.564V14.74h2.496zm-3.164 2.113h-7.361v-2.112h7.361v2.112z" id="Shape"/></g></g></g></g></g></g></g></svg>