<svg xmlns="http://www.w3.org/2000/svg" xmlns:xlink="http://www.w3.org/1999/xlink" width="41" height="18" viewBox="0 0 41 18"><defs><path id="e6jla" d="M213.58 37.85h-7.36v-2.1h7.36zm3.17-2.1c5.05 0 4.2-4.3 4.2-4.3-1.89-5.19-8.64-5.5-8.64-5.5h-.8l.02-.24c0-.52-.35-.95-.77-.95h-.9l-.75-1.16h-.88v-1.02h8.97c.26 0 .46-.15.46-.34 0-.18-.2-.33-.46-.33h-8.61a.63.63 0 1 0-1.26 0h-8.62c-.25 0-.46.15-.46.33 0 .19.2.34.46.34h8.97v1.02h-.88l-.74 1.16h-.86c-.42 0-.77.43-.77.95 0 .09 0 .17.02.25h-18.12l-2.63-3.87s-.5-1.09-2.47-1.09H180l2.28 4.96s-1.6 1.14.22 3.02l-.67 1.87h3.9l.6-2.36 12.17 2c0 5.19 4.74 5.25 4.74 5.25h2.31v2.11h-2.84l-1.32-1.3c-.15-.15-.45-.1-.68.13-.22.22-.28.52-.13.66l1.47 1.47c.07.12.17.19.28.19h14.84c.1 0 .17-.05.24-.13l1.53-1.53c.15-.14.1-.44-.13-.66-.22-.22-.53-.28-.67-.14l-1.32 1.31h-2.57v-2.11h2.5z"/></defs><use xlink:href="#e6jla" opacity=".5" transform="translate(-180 -21)"/></svg>