<svg width="166" height="73" viewBox="0 0 166 73" version="1.1" xmlns="http://www.w3.org/2000/svg"><title>noun_1293419_cc</title><g id="Design" stroke="none" stroke-width="1" fill="none" fill-rule="evenodd" opacity=".3"><g id="Make-a-Booking:-Step-2" transform="translate(-682 -2220)" fill="#696969" fill-rule="nonzero"><g id="5" transform="translate(362 2062)"><g id="2" transform="translate(295.5 158)"><g id="noun_1293419_cc" transform="translate(25)"><path d="M147.887 59.78c20.323 0 16.895-17.387 16.895-17.387-7.589-21.061-34.77-22.287-34.77-22.287h-3.22c.069-.317.104-.654.104-1.001 0-2.13-1.397-3.856-3.12-3.856h-3.637l-2.978-4.691h-3.547V6.406h36.102c1.024 0 1.85-.608 1.85-1.36 0-.752-.826-1.358-1.85-1.358h-34.669a2.54 2.54 0 0 0-5.078 0H75.301c-1.02 0-1.85.608-1.85 1.358 0 .754.83 1.36 1.85 1.36h36.108v4.152h-3.549l-2.978 4.691h-3.452c-1.725 0-3.124 1.728-3.124 3.856 0 .347.04.684.11 1.001H25.47L14.873 4.41S12.855 0 4.96 0H0l9.182 20.104s-6.478 4.653.865 12.245l-2.694 7.59h15.67l2.446-9.548 48.965 8.08c0 21.06 19.102 21.308 19.102 21.308h9.3v8.567H91.375l-5.308-5.306c-.6-.602-1.811-.36-2.705.534-.894.894-1.138 2.106-.536 2.706l5.931 5.937c.271.48.663.783 1.1.783h59.737c.364 0 .692-.205.949-.546l6.172-6.174c.6-.6.36-1.812-.537-2.706-.894-.894-2.106-1.136-2.702-.534l-5.312 5.306h-10.319v-8.567h10.043v.002zm-12.73 8.57H105.53v-8.567h29.625v8.566z" id="Shape"/></g></g></g></g></g></svg>