<svg xmlns="http://www.w3.org/2000/svg" xmlns:xlink="http://www.w3.org/1999/xlink" width="23" height="20" viewBox="0 0 23 20"><defs><path id="r90ra" d="M523 29.46l-.95.94L511.5 20l-10.55 10.4-.95-.94 11.5-11.34 2.97 2.93v-2.02h4.56v6.51zm-1.52 8.41h-7.02v-2.54h7.02zm0-6.27v2.54h-7.02V31.6zm-12.94 3.73v2.54h-7.02v-2.54zm-7.02-1.2V31.6h7.02v2.54zm11.74 3.74h-3.52V31.6h3.52zm-3.12-2.78h1.02v-.99h-1.02zm11.04-4.68h-19.35l1.96-1.94h15.42zM518 27.27h-13.02L507.3 25h8.38zm-9.5-3.45l2.99-2.95 2.98 2.95z"/></defs><use xlink:href="#r90ra" opacity=".5" transform="translate(-500 -18)"/></svg>