<svg width="23" height="20" viewBox="0 0 23 20" version="1.1" xmlns="http://www.w3.org/2000/svg"><title>if_Hotel_Cabin_2948125</title><g id="Design" stroke="none" stroke-width="1" fill="none" fill-rule="evenodd"><g id="Home" transform="translate(-938 -6813)" fill="#FFF" fill-rule="nonzero"><g id="Footer" transform="translate(0 6719)"><g id="First-section" transform="translate(180 70)"><g id="Menu" transform="translate(438 24)"><g id="Item" transform="translate(320)"><g id="if_Hotel_Cabin_2948125"><path d="M14.493 5.82L11.5 2.868 8.507 5.82h5.986zm1.198 1.182H7.31L4.992 9.287h13.016L15.69 7.002zm3.515 3.467H3.794l-1.969 1.942h19.35l-1.969-1.942zm-9.067 5.632h1.02v1.007h-1.02v-1.007zm3.122-2.508H9.739v6.282h3.522v-6.282zm-4.718 2.55v-2.55h-7.02v2.55h7.02zm0 1.182h-7.02v2.55h7.02v-2.55zm5.914-3.732v2.55h7.02v-2.55h-7.02zm7.02 3.732h-7.02v2.55h7.02v-2.55zm-2.45-9.777V1.03h-4.554v2.027L11.5.125 0 11.467l.954.944L11.5 2.009 22.046 12.41l.954-.944-3.974-3.92z" id="Shape"/></g></g></g></g></g></g></g></svg>