<svg width="54" height="54" viewBox="0 0 54 54" version="1.1" xmlns="http://www.w3.org/2000/svg"><title>Group 29 Copy</title><g id="Design" stroke="none" stroke-width="1" fill="none" fill-rule="evenodd"><g id="Lodging" transform="translate(-1268 -2796)"><g id="introduction-text-copy-2" transform="translate(0 1922)"><g id="Gallery" transform="translate(0 526)"><g id="Group-29-Copy" transform="matrix(-1 0 0 1 1320 350)"><path d="M39.605 24.044l-8.63-8.648a1.347 1.347 0 0 0-1.907 0 1.353 1.353 0 0 0 0 1.91l6.328 6.343H12.348A1.35 1.35 0 0 0 11 25a1.35 1.35 0 0 0 1.348 1.351h23.048l-6.328 6.342A1.353 1.353 0 0 0 30.022 35c.345 0 .69-.132.953-.396l8.63-8.648a1.353 1.353 0 0 0 0-1.912z" id="Shape-Copy-2" fill="#FFF" fill-rule="nonzero" transform="matrix(-1 0 0 1 51 0)"/><circle id="Oval-4" stroke="#FFF" stroke-width="3" cx="25" cy="25" r="25"/></g></g></g></g></g></svg>