<svg width="15" height="21" viewBox="0 0 15 21" version="1.1" xmlns="http://www.w3.org/2000/svg"><title>Shape</title><g id="Page-Without-Header-Image" stroke="none" stroke-width="1" fill="none" fill-rule="evenodd" transform="translate(-1028 -1296)"><g id="Go-up" transform="translate(961 1241)" fill="#6C6C6C" fill-rule="nonzero"><g id="up-arrow" transform="translate(59 55)"><path d="M22.659 7.174c.29.283.29.728 0 1.01a.743.743 0 0 1-1.025 0l-5.248-5.12v16.898a.71.71 0 0 1-.724.707c-.404 0-.735-.313-.735-.707v-16.9L9.689 8.185a.756.756 0 0 1-1.035 0 .696.696 0 0 1 0-1.01L15.144.84a.743.743 0 0 1 1.025 0l6.49 6.333z" id="Shape"/></g></g></g></svg>