<svg xmlns="http://www.w3.org/2000/svg" xmlns:xlink="http://www.w3.org/1999/xlink" width="41" height="50" viewBox="0 0 41 50"><defs><path id="3wwzc" d="M1224.2 718.78v-6.38a17.54 17.54 0 0 0-13.2 16.93c0 9.67 7.95 17.5 17.73 17.5 9.79 0 17.73-7.92 17.73-17.58 0-3.9-1.28-7.47-3.45-10.47z"/><path id="3wwzd" d="M1226.31 726.08l5.6 3.7.8-.4z"/><path id="3wwze" d="M1240.34 724.95s-.23-1.61-.94-2.32c-.9-.93-1.91-.94-2.37-1-3.31-.23-8.28-.23-8.28-.23s-4.97 0-8.28.24c-.47.05-1.47.06-2.37.99-.71.7-.94 2.32-.94 2.32s-.24 1.89-.24 3.78v1.77c0 1.9.24 3.78.24 3.78s.23 1.61.94 2.32c.9.93 2.08.9 2.6 1 1.9.18 8.05.23 8.05.23s4.97 0 8.28-.24c.46-.05 1.47-.06 2.37-.99.7-.7.94-2.32.94-2.32s.23-1.89.23-3.78v-1.77c0-1.9-.23-3.78-.23-3.78zm-14.03 7.7v-6.57l6.4 3.3z"/><path id="3wwzf" d="M1249.25 730.88c-.38.8-1.59 1.04-2.7.52l-29.44-13.86c-1.11-.52-1.7-1.6-1.33-2.41l1.29-2.75c.38-.81 1.59-1.04 2.7-.52l29.44 13.86c1.1.52 1.7 1.6 1.32 2.4z"/><path id="3wwzg" d="M1248.88 730.7c-.38.8-1.59 1.04-2.7.52l-29.44-13.86c-1.11-.52-1.7-1.6-1.33-2.41l1.29-2.75c.38-.81 1.59-1.04 2.7-.52l29.44 13.86c1.1.52 1.7 1.6 1.32 2.41z"/><path id="3wwza" d="M1221.46 697.53h29.73v24.37h-29.73z"/><path id="3wwzi" d="M1245.32 707.96c.25-.15.3-.45.08-.73l-.92-1.18.1-.1 2.35 1.62c.35.23.8.23 1.01 0 .21-.23.1-.62-.25-.85l-1.92-1.32a.72.72 0 0 0 .02-.2l.72.23c.4.12.78-.02.83-.33.06-.3-.21-.66-.61-.79l-1.04-.33c.09-.02.18-.04.26-.08l.03-.03 1.77.02c.39 0 .63-.26.54-.6-.09-.33-.49-.6-.88-.6l-1.4-.03-.06-.09c-.1-.1-.22-.18-.34-.24l.65-.26c.32-.12.39-.48.15-.78-.16-.21-.43-.34-.68-.36l-.03-.05a1.6 1.6 0 0 0-.4-.29.77.77 0 0 0-.03-.36l.13-.14c.2-.23.1-.61-.25-.85s-.8-.24-1 0l-.07.06a1.15 1.15 0 0 0-.77.11.67.67 0 0 0-.28.35l-.2-.12.06-.27c.06-.3-.22-.66-.61-.79-.4-.12-.78.02-.84.33l-.02.07a2.26 2.26 0 0 0-.36-.22l-.17-.62c-.1-.33-.5-.6-.88-.61-.4 0-.64.26-.55.6l.15.54-.18.06c-.1.07-.17.16-.24.25-.03-.02-.03-.05-.05-.07a1.57 1.57 0 0 0-.43-.3l-.12-.15c-.24-.3-.7-.45-1.02-.32-.26.1-.35.34-.26.6a.7.7 0 0 0-.11.76c-.26-.06-.52-.02-.66.14-.21.23-.1.62.24.85l.33.23a1 1 0 0 0-.42.13c-.05.02-.07.06-.1.1l-1.1-.36c-.4-.12-.77.02-.83.33-.06.3.21.66.61.79l1.4.44.01.02c.1.1.22.18.34.25-.03 0-.05 0-.07.02a.68.68 0 0 0-.22.22l-.56-.01c-.4 0-.64.26-.55.6.02.09.08.17.14.25a16.8 16.8 0 0 0-14.3 4.45l3.74.05h-.01l1.24.01h.01l.81.95 3.07 3.63 4.75.06 1.24.01.81.95 3.08 3.63 4.75.06h1.23v.01h.01l.8.95 3.08 3.63h1.07a16.93 16.93 0 0 0-5.82-13.93"/><path id="3wwzb" d="M1221.64 697.5h29.33v24.08h-29.33z"/><path id="3wwzk" d="M1245.19 707.81c.25-.15.3-.45.08-.73l-.91-1.16.1-.1 2.32 1.6c.34.23.79.23 1 0 .2-.23.1-.61-.25-.85l-1.9-1.3a.7.7 0 0 0 .02-.2l.72.23c.4.13.76-.02.82-.32.06-.3-.21-.66-.6-.78l-1.03-.33c.08-.02.18-.04.25-.08.02 0 .02-.02.03-.03l1.75.02c.39 0 .63-.26.54-.59-.1-.33-.48-.6-.87-.6l-1.38-.02-.06-.1c-.1-.09-.22-.17-.34-.23l.64-.25c.32-.13.39-.48.15-.78a1 1 0 0 0-.67-.36l-.03-.04a1.6 1.6 0 0 0-.4-.29.76.76 0 0 0-.02-.35l.12-.14c.21-.24.1-.61-.24-.85-.34-.23-.79-.23-1 0l-.06.07a1.14 1.14 0 0 0-.75.1.66.66 0 0 0-.28.35l-.2-.11.06-.27c.06-.3-.21-.65-.6-.78-.4-.13-.77.02-.83.32l-.02.08a2.22 2.22 0 0 0-.35-.22l-.17-.62c-.1-.33-.49-.6-.88-.6s-.63.26-.54.59l.15.54c-.05.02-.12.03-.17.06-.1.06-.18.16-.25.24-.02-.02-.02-.04-.05-.06a1.57 1.57 0 0 0-.41-.3l-.12-.15c-.24-.3-.7-.44-1.01-.32-.26.1-.35.34-.26.59a.7.7 0 0 0-.11.76c-.26-.06-.51-.02-.65.14-.21.23-.1.6.24.84l.32.23a.99.99 0 0 0-.41.12c-.05.03-.07.07-.1.1l-1.09-.35c-.4-.12-.76.02-.82.33-.06.3.21.65.61.77l1.38.44.01.02c.1.1.21.17.33.24-.02.01-.05.01-.07.03a.68.68 0 0 0-.21.21h-.56c-.4-.01-.63.26-.54.58.02.1.08.18.14.26a16.6 16.6 0 0 0-14.12 4.41l3.69.05v-.01l1.22.01v.01l.8.94 3.03 3.58 4.7.05h-.01l1.22.01.8.94 3.04 3.58 4.68.06v-.01l1.22.01v.01h.01l.8.94h-.01l3.04 3.58h1.05c.42-5.05-1.7-10.18-5.73-13.76"/><path id="3wwzl" d="M1249.5 722.8l-.01-.01h-.01l-3.93-4.4-5.88-.22h-.02l-3.92-4.41-5.9-.22h-.01l-3.92-4.4-5.33-.2c-.2.23-1.71 2.95-1.9 3.19l30.62 14.52c.1-.4 1.53-3.4 1.58-3.8z"/><clipPath id="3wwzh"><use xlink:href="#3wwza"/></clipPath><clipPath id="3wwzj"><use xlink:href="#3wwzb"/></clipPath></defs><g><g transform="translate(-1211 -697)"><g><use fill="#bb2025" xlink:href="#3wwzc"/></g><g><use xlink:href="#3wwzd"/></g><g><use fill="#fff" xlink:href="#3wwze"/></g><g><use fill="#c4c4c4" xlink:href="#3wwzf"/></g><g><use fill="#c4c4c4" xlink:href="#3wwzg"/></g><g><g/><g clip-path="url(#3wwzh)"><use fill="#c4c4c4" xlink:href="#3wwzi"/></g></g><g><g/><g clip-path="url(#3wwzj)"><use fill="#c4c4c4" xlink:href="#3wwzk"/></g></g><g><use fill="#c4c4c4" xlink:href="#3wwzl"/></g></g></g></svg>