<svg width="17" height="28" viewBox="0 0 17 28" version="1.1" xmlns="http://www.w3.org/2000/svg"><title>arrow</title><g id="Design" stroke="none" stroke-width="1" fill="none" fill-rule="evenodd"><g id="Standard-Page-With-Sidebar" transform="translate(-1255 -2725)" fill="#E72218" fill-rule="nonzero"><g id="newsletter-copy" transform="translate(180 2652)"><g id="Sign-up" transform="translate(438 77)"><g id="arrow" transform="rotate(90 328.5 325)"><path d="M27 7.968a.956.956 0 0 0-.246-.577L19.787.26a.896.896 0 0 0-1.232-.03c-.339.294-.347.867-.034 1.186l5.593 5.714H.871c-.481 0-.87.375-.87.839 0 .463.389.838.87.838h23.243l-5.593 5.714c-.313.32-.291.878.034 1.186.344.325.911.296 1.232-.033l6.967-7.129A.731.731 0 0 0 27 7.968z" id="Shape"/></g></g></g></g></g></svg>