<svg width="17" height="18" viewBox="0 0 17 18" version="1.1" xmlns="http://www.w3.org/2000/svg"><title>Path Copy 4</title><g id="Design" stroke="none" stroke-width="1" fill="none" fill-rule="evenodd"><g id="Make-a-Booking:-Step-2" transform="translate(-558 -2663)" fill="#959595"><g id="days" transform="translate(303 2370)"><g id="Group-15" transform="translate(0 69)"><g id="Group-30" transform="translate(168)"><g id="Group-19"><g id="Group-16" transform="translate(61 22)"><g id="Group-28" transform="translate(4 202)"><g id="Group-25-Copy"><path d="M28.24 8.328L26.283 7.2l-2.989.8s-.637.17-.808-.47c-.172-.64.464-.81.464-.81l1.71-.459-1.487-.859s-.57-.329-.24-.903c.332-.574.903-.245.903-.245l1.484.857-.457-1.705s-.17-.636.47-.807c.64-.172.81.464.81.464l.8 2.986 2.03 1.171a2.51 2.51 0 0 1 1.092-.558V4.25l-2.19-2.19s-.465-.465.004-.934c.468-.468.934-.002.934-.002l1.252 1.252V.659s0-.659.663-.659.663.659.663.659v1.714l1.248-1.248s.466-.466.934.002c.47.47.003.935.003.935l-2.185 2.185v2.47c.368.116.699.314.972.574l2.146-1.24.801-2.99s.171-.636.811-.465c.64.172.47.808.47.808l-.458 1.71 1.487-.859s.57-.329.902.245c.332.574-.239.903-.239.903L36.8 6.26l1.705.457s.636.17.465.81c-.172.641-.808.47-.808.47l-2.986-.8-2.124 1.227a2.518 2.518 0 0 1 .049 1.18l2.072 1.196 2.99-.801s.637-.17.809.47c.171.64-.465.81-.465.81l-1.71.459 1.487.859s.57.329.24.903c-.332.574-.903.245-.903.245l-1.484-.857.457 1.705s.17.636-.47.807c-.64.172-.81-.464-.81-.464l-.8-2.986-2.006-1.157a2.519 2.519 0 0 1-1.116.723v2.233l2.19 2.19s.465.465-.003.934c-.47.468-.935.002-.935.002l-1.252-1.252v1.718s0 .659-.663.659-.663-.659-.663-.659v-1.714l-1.248 1.248s-.466.466-.934-.002c-.469-.47-.003-.935-.003-.935l2.185-2.185v-2.184a2.513 2.513 0 0 1-1.243-.703l-1.875 1.082-.801 2.991s-.17.636-.811.465c-.64-.172-.47-.808-.47-.808l.459-1.71-1.488.859s-.57.329-.902-.245c-.332-.574.239-.903.239-.903l1.484-.857-1.705-.457s-.636-.17-.464-.81c.171-.641.807-.47.807-.47l2.986.8 1.902-1.099a2.523 2.523 0 0 1 .056-1.376s-.081.248 0 0z" id="Path-Copy-4"/></g></g></g></g></g></g></g></g></g></svg>