<svg width="36" height="35" viewBox="0 0 36 35" version="1.1" xmlns="http://www.w3.org/2000/svg"><title>user-silhouette copy 3</title><g id="Design" stroke="none" stroke-width="1" fill="none" fill-rule="evenodd"><g id="Make-a-Booking:-Step-2" transform="translate(-365 -2266)" fill="#DB0B00" fill-rule="nonzero"><g id="5" transform="translate(362 2062)"><g id="1" transform="translate(3 158)"><g id="user-silhouette-copy-3" transform="translate(0 46)"><path d="M17.68 18.547c4.356 0 7.888-4.135 7.888-9.234 0-7.072-3.532-9.234-7.889-9.234S9.79 2.24 9.79 9.313c.001 5.1 3.533 9.234 7.89 9.234zM35.1 32.138l-3.98-8.966a1.998 1.998 0 0 0-.9-.958l-6.177-3.216a.398.398 0 0 0-.424.036c-1.747 1.321-3.8 2.02-5.94 2.02-2.14 0-4.193-.699-5.94-2.02a.399.399 0 0 0-.424-.036l-6.177 3.216a1.997 1.997 0 0 0-.9.958l-3.98 8.966a1.983 1.983 0 0 0 .15 1.892c.37.567.993.905 1.669.905H33.28c.676 0 1.3-.338 1.669-.905a1.983 1.983 0 0 0 .15-1.892z" id="Shape"/></g></g></g></g></g></svg>