<svg xmlns="http://www.w3.org/2000/svg" xmlns:xlink="http://www.w3.org/1999/xlink" width="45" height="51" viewBox="0 0 45 51"><defs><path id="x11xa" d="M1159.25 711.52h35.54v35.49h-35.54z"/><path id="x11xd" d="M1194.8 729.26c0 9.8-7.96 17.75-17.78 17.75a17.76 17.76 0 0 1-17.77-17.75c0-9.8 7.96-17.74 17.77-17.74 9.82 0 17.78 7.94 17.78 17.74"/><path id="x11xe" d="M1177.03 718.74c-2.87 0-3.23.01-4.35.06a7.82 7.82 0 0 0-2.56.5 5.2 5.2 0 0 0-3.08 3.08 7.73 7.73 0 0 0-.5 2.55 75.26 75.26 0 0 0-.06 4.34c0 2.86.01 3.22.06 4.34.05 1.12.23 1.89.5 2.56.26.69.62 1.28 1.21 1.86.59.59 1.17.95 1.87 1.22a7.8 7.8 0 0 0 2.56.48c1.12.06 1.48.07 4.35.07 2.86 0 3.22-.01 4.35-.07a7.8 7.8 0 0 0 2.56-.48c.69-.27 1.28-.63 1.86-1.22.59-.58.95-1.17 1.22-1.86.26-.67.44-1.44.49-2.56.05-1.12.06-1.48.06-4.34s-.01-3.22-.06-4.34a7.66 7.66 0 0 0-.5-2.56 5.2 5.2 0 0 0-1.2-1.86 5.18 5.18 0 0 0-1.87-1.22 7.82 7.82 0 0 0-2.56-.49 75.03 75.03 0 0 0-4.35-.06m0 1.9c2.81 0 3.15 0 4.26.06 1.03.05 1.59.22 1.96.36.49.2.84.42 1.2.79.38.37.6.72.8 1.2.14.38.31.94.36 1.96.05 1.12.06 1.45.06 4.26 0 2.81 0 3.14-.06 4.25a5.84 5.84 0 0 1-.36 1.96c-.2.49-.42.84-.8 1.21-.36.37-.71.6-1.2.79-.37.14-.93.31-1.96.36a72.5 72.5 0 0 1-4.26.06 72.5 72.5 0 0 1-4.27-.06 5.77 5.77 0 0 1-1.95-.36 3.3 3.3 0 0 1-1.22-.79c-.37-.37-.6-.72-.79-1.21a5.85 5.85 0 0 1-.36-1.96c-.05-1.1-.06-1.44-.06-4.25s.01-3.14.06-4.26c.05-1.02.22-1.58.36-1.95.2-.5.42-.84.8-1.21.36-.37.71-.6 1.2-.79.38-.14.94-.31 1.96-.36 1.12-.05 1.45-.06 4.27-.06"/><path id="x11xf" d="M1177.03 732.78a3.51 3.51 0 1 1 0-7.03 3.51 3.51 0 0 1 0 7.03m0-8.92a5.41 5.41 0 1 0-.01 10.82 5.41 5.41 0 0 0 0-10.82"/><path id="x11xg" d="M1183.92 723.64a1.27 1.27 0 1 1-2.53 0 1.27 1.27 0 0 1 2.53 0"/><path id="x11xh" d="M1160.19 720.92l1.4 2.9.5 12.92-3.08 4.15-.13-13.27z"/><path id="x11xb" d="M1157.23 696.51h6.42v50.42h-6.42z"/><path id="x11xj" d="M1163.6 728.1a.2.2 0 0 1-.02.28l-.16.12a.2.2 0 0 1-.27-.03l-.3-.38a.2.2 0 0 1 .01-.26l-1-1.26a517.17 517.17 0 0 0 .34 13.12c.17 4.55.33 5.51.33 5.84 0 .42-.58 1.4-.87 1.4h-2.44c-.29 0-.86-.93-.86-1.4 0-.28.1-1.03.25-4.13a236.7 236.7 0 0 0 .23-6.37c.08-2.56.14-5.44.18-8.46l-1 1.26a.2.2 0 0 1 .02.26l-.3.38a.2.2 0 0 1-.28.03l-.16-.12a.2.2 0 0 1-.03-.28l.3-.38a.2.2 0 0 1 .26-.04l1.2-1.5a236.8 236.8 0 0 0-.17-14.64 665.75 665.75 0 0 0-.21-5.34l-.28-6.12c-.11-2.2.55-3.27 1.66-3.53a1.8 1.8 0 0 1 .87.02c1.09.28 1.72 1.34 1.61 3.51l-.1 2.37a966.63 966.63 0 0 0-.4 9.52 294.5 294.5 0 0 0-.16 14.21l1.2 1.5a.2.2 0 0 1 .26.04zm-4.59-19.98l.1 2.77 2.76-2.76.12-3zm2.77 27.92l-.04-1.38-2.69 2.7-.05 1.46zm-2.04-18.65v1.81h1.41v-1.81l.38.67v-2.16l-.75-1.35h-.67l-.75 1.35v2.16zm-.44 6.76l.28 1.18h1.72l.28-1.18zm.3 2.08h1.67v-.62h-1.67zm0 1.56v2.32l.2.6h1.27l.2-.6v-2.32z"/><path id="x11xk" d="M1160.64 729a.2.2 0 0 1-.24-.12l-.16-.46a.2.2 0 0 1 .11-.24l-.51-1.53a500.94 500.94 0 0 0-4.17 12.45c-1.4 4.34-1.58 5.3-1.7 5.6-.14.4-1.02 1.12-1.29 1.02l-2.3-.83c-.26-.1-.49-1.17-.33-1.61.1-.27.46-.93 1.66-3.8l.65-1.58.06-.14a558.22 558.22 0 0 0 4.75-12.07l-1.37.84a.2.2 0 0 1-.08.25l-.4.25a.2.2 0 0 1-.28-.06l-.1-.17a.2.2 0 0 1 .06-.27l.42-.25a.2.2 0 0 1 .25.05l1.64-1 1.73-4.66a238.25 238.25 0 0 0 3.12-9.16l1.09-3.37.54-1.72 1.84-5.85c.65-2.1 1.63-2.88 2.77-2.74a1.85 1.85 0 0 1 .8.3c.93.64 1.16 1.85.32 3.86l-.92 2.19a1054.86 1054.86 0 0 0-3.62 8.81 292.3 292.3 0 0 0-5.01 13.3l.6 1.82c.1-.02.2.03.23.13l.16.45a.2.2 0 0 1-.13.25zm1.75-17.28c-.3.88-.57 1.74-.84 2.56l3.2-1.5 1.08-2.67zm-6.4 25.46l.3-.9-3.65 1.69-.01.04-.38.91zm5-19.88l-.62 1.7 1.33.49.62-1.7.12.75.74-2.02-.24-1.52-.63-.23-1.17 1-.73 2.03zm-2.73 6.21l-.14 1.2 1.61.6.67-1.02zm1.14 2.62l.21-.57-1.57-.57-.21.57zm-2.1.9l-.42 1.13-.38 1.05v.63l1.2.43.4-.48.38-1.05.4-1.13z"/><clipPath id="x11xc"><use xlink:href="#x11xa"/></clipPath><clipPath id="x11xi"><use xlink:href="#x11xb"/></clipPath></defs><g><g transform="translate(-1150 -696)"><g><g/><g clip-path="url(#x11xc)"><use fill="#e4405f" xlink:href="#x11xd"/></g></g><g><use fill="#fff" xlink:href="#x11xe"/></g><g><use fill="#fff" xlink:href="#x11xf"/></g><g><use fill="#fff" xlink:href="#x11xg"/></g><g><use fill="#fff" xlink:href="#x11xh"/></g><g><g/><g clip-path="url(#x11xi)"><use fill="#c4c4c4" xlink:href="#x11xj"/></g></g><g><use fill="#c4c4c4" xlink:href="#x11xk"/></g></g></g></svg>