<svg width="25" height="31" viewBox="0 0 25 31" version="1.1" xmlns="http://www.w3.org/2000/svg"><title>pdf-file</title><g id="Design" stroke="none" stroke-width="1" fill="none" fill-rule="evenodd"><g id="Who-We-Are" transform="translate(-228 -7244)" fill="#DB0B00" fill-rule="nonzero"><g id="Join" transform="translate(178 6709)"><g id="table" transform="translate(0 355)"><g id="Content"><g id="section-background-concept-03-(1)"><g id="Group-10" transform="translate(0 .524)"><g id="pdf-file" transform="translate(50 180)"><path d="M6.088 19.267c0-.498-.345-.794-.954-.794-.248 0-.417.024-.505.048v1.595c.105.024.233.032.41.032.649 0 1.05-.328 1.05-.881zm3.77-.777c-.273 0-.45.023-.553.047v3.534c.104.025.272.025.425.025 1.106.008 1.827-.601 1.827-1.891.008-1.122-.65-1.715-1.7-1.715z" id="Shape"/><path d="M16.86 0H4.834a3.192 3.192 0 0 0-3.187 3.187v11.786h-.312c-.709 0-1.284.575-1.284 1.285v7.789c0 .71.575 1.284 1.284 1.284h.312v1.428a3.19 3.19 0 0 0 3.187 3.188h16.411a3.19 3.19 0 0 0 3.187-3.188V7.543L16.86 0zM3.42 17.663c.376-.063.905-.111 1.65-.111.754 0 1.29.144 1.651.432.345.273.577.722.577 1.25 0 .529-.176.978-.496 1.283-.417.392-1.034.569-1.756.569-.16 0-.304-.008-.417-.024v1.931H3.42v-5.33zm17.824 10.332H4.833c-.68 0-1.234-.554-1.234-1.236v-1.428h15.298c.71 0 1.285-.575 1.285-1.284v-7.79c0-.71-.575-1.284-1.285-1.284H3.6V3.187c0-.68.554-1.233 1.234-1.233l11.297-.012v4.176c0 1.22.99 2.21 2.21 2.21l4.092-.011.046 18.442c0 .682-.553 1.236-1.234 1.236zM8.08 22.969v-5.306a11 11 0 0 1 1.65-.111c1.026 0 1.692.184 2.213.576.56.417.913 1.082.913 2.036 0 1.034-.376 1.748-.898 2.188-.568.473-1.434.697-2.492.697-.633 0-1.082-.04-1.386-.08zm8.747-3.141v.993h-1.94v2.172H13.66v-5.401h3.302v1.001h-2.076v1.235h1.94z" id="Shape"/></g></g></g></g></g></g></g></g></svg>