<svg width="15" height="15" viewBox="0 0 15 15" version="1.1" xmlns="http://www.w3.org/2000/svg"><title>Shape Copy 3</title><g id="Design" stroke="none" stroke-width="1" fill="none" fill-rule="evenodd"><g id="Make-a-Booking:-Step-2" transform="translate(-580 -2717)" fill="#959595" fill-rule="nonzero"><g id="days" transform="translate(303 2370)"><g id="Group-15" transform="translate(0 69)"><g id="Group-30" transform="translate(168)"><g id="Group-19"><g id="Group-16" transform="translate(61 22)"><g id="Group-23" transform="translate(27 256)"><g id="sun"><path d="M31.139 4.832a3.693 3.693 0 0 1 1.109 2.653c0 1.03-.436 1.98-1.11 2.654a3.693 3.693 0 0 1-2.653 1.109 3.77 3.77 0 0 1-2.653-1.11 3.775 3.775 0 0 1-1.11-2.653c0-1.03.436-1.98 1.11-2.653a3.693 3.693 0 0 1 2.653-1.11c1.03 0 1.98.436 2.654 1.11zm-2.654-2.278a.524.524 0 0 1-.515-.514V.515c0-.277.238-.515.515-.515S29 .238 29 .515V2.04a.524.524 0 0 1-.515.514zM32.703 4c-.218.198-.535.198-.713 0a.502.502 0 0 1 0-.713l1.09-1.089a.502.502 0 0 1 .712 0 .502.502 0 0 1 0 .713L32.703 4zm2.752 2.97c.278 0 .515.238.515.515a.524.524 0 0 1-.515.515h-1.524a.524.524 0 0 1-.515-.515c0-.277.237-.515.515-.515h1.524zm-2.772 4l1.09 1.09a.502.502 0 0 1 0 .712.502.502 0 0 1-.714 0l-1.089-1.089a.502.502 0 0 1 0-.713.502.502 0 0 1 .713 0zm-4.198 1.446c.277 0 .515.237.515.515v1.524a.524.524 0 0 1-.515.515.524.524 0 0 1-.515-.515v-1.524c0-.278.238-.515.515-.515zm-4.218-1.446c.218-.198.535-.198.713 0a.502.502 0 0 1 0 .713l-1.089 1.09a.502.502 0 0 1-.713 0 .502.502 0 0 1 0-.714l1.09-1.089zm-.713-3.485A.524.524 0 0 1 23.04 8h-1.525A.524.524 0 0 1 21 7.485c0-.277.238-.515.515-.515h1.525c.277 0 .514.238.514.515zM24.267 4l-1.089-1.09a.502.502 0 0 1 0-.712.502.502 0 0 1 .713 0l1.09 1.09a.502.502 0 0 1 0 .712.502.502 0 0 1-.714 0z" id="Shape-Copy-3"/></g></g></g></g></g></g></g></g></g></svg>