<svg xmlns="http://www.w3.org/2000/svg" xmlns:xlink="http://www.w3.org/1999/xlink" width="43" height="44" viewBox="0 0 43 44"><defs><path id="2mq4c" d="M1082.69 729.14a17.6 17.6 0 0 1-17.5 17.7 17.6 17.6 0 0 1-17.5-17.7 17.6 17.6 0 0 1 17.5-17.7 17.6 17.6 0 0 1 17.5 17.7"/><path id="2mq4d" d="M1061.4 738.67c7.72 0 11.94-6.47 11.94-12.08l-.01-.55a8.6 8.6 0 0 0 2.1-2.2c-.76.34-1.57.57-2.42.67a4.25 4.25 0 0 0 1.85-2.35c-.81.49-1.71.84-2.67 1.03a4.17 4.17 0 0 0-3.06-1.34 4.22 4.22 0 0 0-4.1 5.22 11.88 11.88 0 0 1-8.65-4.44 4.27 4.27 0 0 0 1.3 5.67 4.13 4.13 0 0 1-1.9-.53v.05a4.24 4.24 0 0 0 3.37 4.16 4.16 4.16 0 0 1-1.9.08 4.21 4.21 0 0 0 3.93 2.95 8.36 8.36 0 0 1-6.22 1.76 11.8 11.8 0 0 0 6.44 1.9"/><path id="2mq4e" d="M1042.3 719.74l12.95-8.24 15.91-7.1 2.32.74 3.49 7.33-1.12 4.2-4.45 3.38-4.51-.35-5.33.11-2.3 2.21-2.02 3.12-2.86 3.3-3.86 1.5-3.15-.75-3.43-4.85z"/><path id="2mq4a" d="M1040 721.51h5.9v8.8h-5.9z"/><path id="2mq4g" d="M1044.06 727.42a9.6 9.6 0 0 1-.2-.38l-2.75-5.53-.67.67a1.53 1.53 0 0 0-.28 1.76l2.76 5.54a1.5 1.5 0 0 0 2.02.67l.96-.48a7.86 7.86 0 0 1-1.84-2.25"/><path id="2mq4h" d="M1075.3 704.4l-.92.14 2.76 5.53.18.39c.42.93.65 1.88.7 2.82l.95-.48c.74-.38 1.04-1.3.67-2.05l-2.76-5.53a1.5 1.5 0 0 0-1.57-.82"/><path id="2mq4i" d="M1071.43 719.54l-.4.23-4.42-.33-5.33.13-2.29 2.22-.1.14-.11-3.8.21-.42-.12-.78.2-.46.48.35-.53-2.6.38-.41-.61-2.18 2.96 2.72.02-1.01.8.92.67.14 1.12 1.06.07-.79 2.02 1.57-.07-1.68.66.27-.21-1.33.26-.6-.27-1.02.8.4-.49-3.49 1.37 1.39.53-.14 1.74 1.5v-.53l.47.04.55.42.46.02 4 2.29-.7 2.6zm-8.3-4.75l-.02-.01-.3-.07.3.07zm4.19-1.52l-.13.28v.02-.02z"/><path id="2mq4b" d="M1041.24 703.51h36.27v27.22h-36.27z"/><path id="2mq4k" d="M1071.7 703.58a97.48 97.48 0 0 0-15.53 6.3h-.02a97.92 97.92 0 0 0-14.23 8.88 1.87 1.87 0 0 0-.51 2.2l2.91 5.85.19.35a7 7 0 0 0 2.76 2.82c1.93 1.05 4.3 1 6.5-.12a9.89 9.89 0 0 0 4.26-4.32c.44-.9.9-1.8 1.37-2.69a4.98 4.98 0 0 1 5.16-2.63c.98.15 1.97.31 2.95.48 2.06.34 4.18.02 5.97-.89a7.06 7.06 0 0 0 3.96-5.21 7.11 7.11 0 0 0-.77-4.29l-2.9-5.84a1.82 1.82 0 0 0-2.07-.9zm3.4 7.16l.14.3c.47 1.05.63 2.12.48 3.19a5.38 5.38 0 0 1-1.9 3.39 6.84 6.84 0 0 1-2.21 1.24 7.61 7.61 0 0 1-4.01.27l-2.81-.48a6.37 6.37 0 0 0-6.79 3.46c-.43.85-.86 1.7-1.28 2.57a9 9 0 0 1-.82 1.34 7.7 7.7 0 0 1-2 1.91c-.5.32-1.02.58-1.55.76a5.35 5.35 0 0 1-6.76-2.9l-1.94-3.9a2.43 2.43 0 0 1 .72-2.95 98.1 98.1 0 0 1 12.81-7.77 97.66 97.66 0 0 1 13.2-5.5 2.37 2.37 0 0 1 2.77 1.17z"/><clipPath id="2mq4f"><use xlink:href="#2mq4a"/></clipPath><clipPath id="2mq4j"><use xlink:href="#2mq4b"/></clipPath></defs><g><g transform="translate(-1040 -703)"><g><use fill="#77ccf1" xlink:href="#2mq4c"/></g><g><use fill="#fff" xlink:href="#2mq4d"/></g><g><use fill="#fff" xlink:href="#2mq4e"/></g><g><g/><g clip-path="url(#2mq4f)"><use fill="#c4c4c4" xlink:href="#2mq4g"/></g></g><g><use fill="#c4c4c4" xlink:href="#2mq4h"/></g><g><use fill="#e5e5e5" xlink:href="#2mq4i"/></g><g><g/><g clip-path="url(#2mq4j)"><use fill="#c4c4c4" xlink:href="#2mq4k"/></g></g></g></g></svg>