<svg xmlns="http://www.w3.org/2000/svg" xmlns:xlink="http://www.w3.org/1999/xlink" width="250" height="53" viewBox="0 0 250 53"><defs><path id="jyh3a" d="M265 728v-26h17v6.13h-11.36v3.78H282v6.13h-11.36V728H265z"/><path id="jyh3b" d="M290.9 711.55h8.06c.47 0 .92-.19 1.25-.53.35-.35.55-.83.53-1.32.02-.5-.18-.98-.53-1.33a1.55 1.55 0 0 0-1.25-.52h-8.07zm11.4 15.9l-9.27-9.85h-2.18v9.85h-5.75v-25.79h13.86a7.1 7.1 0 0 1 5.3 2.34 7.91 7.91 0 0 1 2.19 5.65 8.1 8.1 0 0 1-2.23 5.66c-.9 1-2.08 1.71-3.39 2.07l5.26 5.61 4.41 4.68z"/><path id="jyh3c" d="M350.02 727.5v-14.58a5.2 5.2 0 0 0-1.38-3.66 4.66 4.66 0 0 0-6.86 0 4.83 4.83 0 0 0-1.38 3.66v14.58h-5.75v-25.84h5.75v1.24a9.81 9.81 0 0 1 4.86-1.24 9.94 9.94 0 0 1 7.48 3.27c2.03 2.15 3.13 5 3.08 7.95v14.53h-5.8z"/><path id="jyh3d" d="M361.13 727.5v-19.75h-5.53v-6.09h17.02v6.09h-5.75v19.75h-5.74z"/><path id="jyh3e" d="M374.4 727.5v-25.84h5.75v25.84h-5.75z"/><path id="jyh3f" d="M410.95 711.54h8.07c.47 0 .92-.18 1.25-.53.35-.34.54-.82.53-1.32.01-.5-.18-.97-.53-1.32-.3-.37-.77-.57-1.25-.53h-8.07zm19.7 16.09l-8.25-.18-9.27-9.85h-2.18v9.85h-5.75v-25.79h13.81a7.1 7.1 0 0 1 5.3 2.34 7.91 7.91 0 0 1 2.2 5.65 8.1 8.1 0 0 1-2.24 5.66c-.9 1-2.08 1.71-3.38 2.07l5.25 5.61z"/><path id="jyh3g" d="M384.07 727.5v-25.79h17.34v6.1h-11.6v3.7h11.6v6.1h-11.6v9.9h-5.74z"/><path id="jyh3h" d="M389.82 717.78v3.71h11.59v6.1h-17.34l5.75-9.81z"/><path id="jyh3i" d="M186.53 701.66H181v25.7H198.65v-5.83h-12.12v-19.87z"/><path id="jyh3j" d="M210.28 721.54c-1.78.03-3.5-.71-4.68-2.04a6.94 6.94 0 0 1-1.91-4.99 6.94 6.94 0 0 1 1.91-4.99 6.39 6.39 0 0 1 9.36 0 6.94 6.94 0 0 1 1.92 5 6.94 6.94 0 0 1-1.92 4.98 6.11 6.11 0 0 1-4.68 2.04zm12.12-19.88h-5.52v2.12a11.07 11.07 0 0 0-6.6-2.12 11.37 11.37 0 0 0-8.56 3.75 12.68 12.68 0 0 0-3.52 9.1 12.95 12.95 0 0 0 3.52 9.1c3.9 4.27 10.4 5 15.16 1.68v2.12h5.52z"/><path id="jyh3k" d="M233.76 701c-4.54 0-9.18 2.74-9.18 8 0 5.47 4.73 6.8 7.27 7.5l1.47.4c2.98.8 4.81 1.37 4.81 2.92 0 2.16-2.9 2.3-3.79 2.3-1.65 0-4.36-.5-4.36-3.76v-.67h-6.2v.71a8.4 8.4 0 0 0 2.23 6.18c1.87 2 4.72 3.1 8.11 3.1 6.15 0 10.12-3.32 10.12-8.44 0-5.83-5.3-7.2-7.09-7.64l-.18-.04-.49-.14c-5.35-1.45-5.8-1.68-5.8-2.82 0-1.95 2.33-2.04 2.82-2.04 2.58 0 3.74.89 3.83 3l.04.67h6.15v-.7c0-5.26-3.74-8.53-9.76-8.53"/><path id="jyh3l" d="M261.65 701.66H244.81v5.83h5.57v19.87h5.48V707.5h5.79v-5.83z"/><path id="jyh3m" d="M315.8 709.92a6.77 6.77 0 0 0-1.87 4.86 6.84 6.84 0 0 0 1.88 4.85 6.27 6.27 0 0 0 9.18 0 6.74 6.74 0 0 0 1.87-4.81 6.77 6.77 0 0 0-1.87-4.86 6.04 6.04 0 0 0-4.6-1.98 5.85 5.85 0 0 0-4.58 1.94zm4.6 18.06c-3.38.03-6.6-1.37-8.87-3.84a13.5 13.5 0 0 1-3.66-9.36 13.04 13.04 0 0 1 3.66-9.37 12.13 12.13 0 0 1 17.73 0 13.5 13.5 0 0 1 3.66 9.37 13.04 13.04 0 0 1-3.66 9.36 11.94 11.94 0 0 1-8.77 3.84z"/><path id="jyh3n" d="M323.7 714.83c.09 1.22-.52 2.4-1.58 3.04a3.33 3.33 0 0 1-3.45 0 3.27 3.27 0 0 1-1.57-3.04c-.1-1.23.52-2.4 1.57-3.04a3.33 3.33 0 0 1 3.45 0 3.27 3.27 0 0 1 1.57 3.04"/><path id="jyh3o" d="M310.54 744.41h-7.35v-11.17h2.76v9.14h4.6v2.03z"/><path id="jyh3p" d="M430.87 743.84c-1.4.66-2.95.98-4.5.93-1.97 0-3.57-.48-4.68-1.5a5.24 5.24 0 0 1-1.7-4.1 5.44 5.44 0 0 1 1.87-4.3 7.24 7.24 0 0 1 5-1.67c1.16-.01 2.32.15 3.43.49v2.34a7.48 7.48 0 0 0-3.48-.75 3.97 3.97 0 0 0-2.8 1.01 3.54 3.54 0 0 0-1.08 2.7c-.07.98.29 1.94.98 2.65.72.64 1.67.97 2.63.92.55.03 1.1-.06 1.6-.26v-2.17h-2.44v-1.98h5.26v5.7z"/><path id="jyh3q" d="M275.43 744.41h-2.8v-4.55h-5.09v4.55h-2.76v-11.17h2.76v4.46h5.08v-4.46h2.81v11.17z"/><path id="jyh3r" d="M293.12 744.41h-7.4v-11.17h7.09v2.08h-4.33v2.47h4.06v2.03h-4.06v2.56h4.64v2.03z"/><path id="jyh3s" d="M333.72 744.15v-2.48c.47.38 1.02.67 1.6.84a6 6 0 0 0 2.72.18c.23-.04.46-.12.67-.22.16-.08.3-.2.4-.36a.74.74 0 0 0 .13-.44.93.93 0 0 0-.22-.57c-.16-.2-.36-.36-.58-.49-.22-.13-.53-.26-.85-.44-.3-.18-.67-.26-1.07-.4a4.9 4.9 0 0 1-2.14-1.32 2.64 2.64 0 0 1-.7-1.9 2.8 2.8 0 0 1 .4-1.5c.27-.42.63-.76 1.06-1.02.48-.3 1-.49 1.56-.57a8.41 8.41 0 0 1 1.87-.18c.63 0 1.2.05 1.7.09.46.08.92.18 1.38.3v2.35a4.88 4.88 0 0 0-.67-.35c-.22-.1-.49-.18-.76-.27a5.5 5.5 0 0 0-2.31-.09c-.24.04-.46.12-.67.22-.17.09-.3.2-.4.36a.88.88 0 0 0-.14.48c0 .18.06.36.18.49.13.17.28.32.45.44.22.13.44.27.7.4.28.13.63.26.99.4.49.17.94.4 1.34.57.36.2.7.44 1.02.7.27.27.49.58.63.93a3.34 3.34 0 0 1-.18 2.79c-.27.42-.63.77-1.07 1.01-.49.27-1.02.47-1.56.58-.62.12-1.25.18-1.87.17a8.83 8.83 0 0 1-3.61-.7"/><path id="jyh3t" d="M362.42 744.41h-3.52l-3.61-4.85c-.13-.2-.24-.4-.31-.62h-.05v5.47h-2.76v-11.17h2.76v5.26h.05c.09-.14.18-.36.35-.62l3.4-4.64h3.29l-4.28 5.34z"/><path id="jyh3u" d="M409.52 744.41h-2.81l-5.08-7.02c-.23-.3-.44-.6-.63-.93h-.04c.06.6.1 1.21.09 1.82v6.13h-2.63v-11.17h2.99l4.9 6.8c.22.31.44.62.62.93h.05a9.98 9.98 0 0 1-.1-1.55v-6.18h2.64z"/><path id="jyh3v" d="M320.8 744.41v-11.17h2.41v11.17z"/><path id="jyh3w" d="M385.55 744.41v-11.17h2.41v11.17z"/><path id="jyh3x" d="M375.08 744.46l-2.41-.05.18-11.17 2.4.04-.17 11.18z"/><path id="jyh3y" d="M251.2 737.83l.25-.15-.4-.15.05.25.1.05z"/><path id="jyh3z" d="M250.74 737.62l-.04-.22-1.43-.49.04.22 1.43.49z"/><path id="jyh3A" d="M245.21 741.1a.04.04 0 0 0-.04.04v.23l3.25 1.1v-.09z"/><path id="jyh3B" d="M248.43 743.8v-.18l-3.3-1.1v.13l3.3 1.15z"/><path id="jyh3C" d="M246.46 736.24l.58.18 1.03.35-.09-.3-1.56-.58z"/><path id="jyh3D" d="M245.44 735.98c.05 0 .4.1.72.18v-.35l-1.12-.4-.89.4c.13 0 .22 0 .27.04.34.02.68.06 1.02.13"/><path id="jyh3E" d="M248.65 742.57l.5.2v-.05l-.5-.25v.1z"/><path id="jyh3F" d="M248.74 743.75l-.09-.04v.17l.53.18V743l-.44.75z"/><path id="jyh3G" d="M244.9 742.43l-1.47-.53c-.05.04-.1.04-.18.09l1.65.57z"/><path id="jyh3H" d="M249.14 742.74l-.49-.18v-.08l.5.17zm-.49 1.15v-.18l.05.05.45-.75.05 1.1zm-3.74-1.46v.13l-1.65-.57c.04-.04.09-.04.18-.09zm.13-7.02l1.12.4v.35a7.7 7.7 0 0 0-.72-.18c-.13 0-.8-.17-.98-.17a.8.8 0 0 1-.26-.05zm3.03 1.32l-1.02-.35-.58-.18v-.35l1.56.57zm2.63.67l.05.22-1.39-.44-.04-.27zm.7.26l-.21.13-.09-.04-.04-.22zm-2.97 4.82l-3.25-1.1v-.23c.02 0 .04-.02.04-.04l3.2 1.28zm0 1.14v.18l-3.3-1.15v-.13zm5.75-4.63l-1.7-.71.32-.18 1.38.49.13-.4-1.02-.35 9.35-5.04-.17-1.72-10.56 6.27-.9-.3-1.82-.67-2.72-12.41-.1.04v-.04l-.4.09c-.37.14-.71.35-1.02.62l2.9 11.26-1.7-.62v-.04l-.97-.36-.85-.97-.98-.26-.54.8.14 1.05.49.13h-.98l-3.88-1.1.22-1.99-.49-.09-.26 2-2.14-.63.04-.3c.4.15.82.29 1.25.4.07-.1.13-.21.18-.32l-1.38-.22a.2.2 0 0 0-.18-.13c-.05 0-.1.01-.14.04l-1.15-.61s-.1.26-.05.35c.37.17.76.3 1.16.4l-.13.3-.67-.17-.94-.27h-.27s-.17.22-.09.22l1.12.58 3.3 1.2-.23 1.58.58.18.18-1.6 2.59.94h.04c.02.04.05.09.09.13.5 1.07 1.1 2.09 1.78 3.05.22.33.5.63.8.88h.05c.04 0 .04.04.09.04l-.45.14-.53-.18a.75.75 0 0 0-.8.3c-.05.1-.08.2-.1.32l-.4-.49-.97-.26-.54.8.04.57-5.08 1.67s-.08 1.73.14 1.77c.13.04 4.1-1.68 7.35-3.1l6.55 2.3.27 9.41s1.51-.48 1.47-.66l-.53-8.3 1.06.4.14-.4-1.25-.45-.09-1.36.76.3c.37.23.78.41 1.2.53.4.14.8.23 1.16.31.13.05.31.05.36.1h.71a4.26 4.26 0 0 0 1.92-.5c.38-.2.66-.55.8-.97.58-1.32-.85-3.04-3.08-3.84z"/><path id="jyh3I" d="M271.11 751.7c0 .22-.04.36-.13.4a.6.6 0 0 1-.45.13h-3.12v-1.5h3.12a.5.5 0 0 1 .45.13c.11.12.16.28.13.44zm-.03-1.99c0 .27-.18.45-.54.4h-3.13v-1.28h3.13a.9.9 0 0 1 .4.09c.1.04.14.13.14.3zm-4.56 3.23h4.01c.98 0 1.47-.31 1.47-.93v-.62c0-.57-.31-.84-.93-.92.57-.05.89-.31.89-.8v-.53a.8.8 0 0 0-.27-.7 1.39 1.39 0 0 0-.85-.23h-4.32z"/><path id="jyh3J" d="M278.46 748.83h-3.08v1.64h3.08c.16 0 .31-.03.45-.1.09-.04.13-.17.13-.39v-.66c0-.18-.04-.31-.13-.36a.6.6 0 0 0-.45-.13zm-3.97 4.06v-4.68h4.32c.3-.02.6.06.85.22.2.18.3.45.27.71v1.06a.88.88 0 0 1-.27.7c-.25.16-.55.24-.85.23h-.8l2.45 1.8h-1.34l-2.18-1.8h-1.6v1.8h-.85z"/><path id="jyh3K" d="M282.43 752.89v-4.68h.89v4.68z"/><path id="jyh3L" d="M288.17 748.83v4.06h-.89v-4.06h-2.45v-.62h5.8v.62h-2.46z"/><path id="jyh3M" d="M292.14 752.89v-4.68h.89v4.68z"/><path id="jyh3N" d="M300.43 748.83h-3.8v1.33h3.4c.34-.03.68.05.98.22.2.25.3.57.26.88v.53c.04.32-.06.64-.26.89-.18.17-.5.22-.99.22h-3.11c-.35.03-.69-.05-.99-.22-.2-.25-.3-.57-.26-.89v-.13l.84-.18v.76h4.02v-1.42h-3.4c-.33.03-.68-.05-.97-.22-.21-.24-.3-.56-.27-.88v-.4a1.1 1.1 0 0 1 .27-.88c.3-.18.64-.25.98-.22h2.85c.34-.03.68.05.98.22.2.2.3.5.27.8v.08l-.76.18v-.67z"/><path id="jyh3O" d="M303.95 752.9v-4.69h.9v1.9h4.22v-1.9h.9v4.68h-.9v-2.12h-4.23v2.12h-.89z"/><path id="jyh3P" d="M321.2 748.83h-3.74v3.4h3.74v-1.19l.9.18v.57c.04.32-.06.64-.28.89-.3.17-.63.25-.98.22h-2.98c-.34.03-.69-.05-.98-.22a1.1 1.1 0 0 1-.27-.89v-2.47c-.04-.32.06-.64.27-.88.18-.18.49-.22.98-.22h2.98c.35-.03.69.04.98.22.22.24.32.56.27.88v.44l-.89.13z"/><path id="jyh3Q" d="M325.3 752.25h4.44v-3.42h-4.45zm-.94-2.93c-.04-.32.06-.64.27-.88.18-.18.49-.22.98-.22h3.7c.34-.03.68.04.98.22.21.24.3.56.26.88v2.47c.04.32-.06.64-.26.89-.18.17-.5.22-.98.22h-3.7c-.34.03-.69-.05-.98-.22a1.1 1.1 0 0 1-.27-.89z"/><path id="jyh3R" d="M333.32 752.9v-4.69h.9v4.02h4.05v.66h-4.95z"/><path id="jyh3S" d="M341.02 748.21v4.02h3.92v-4.02h.9v3.58c.03.32-.07.64-.27.88-.18.18-.5.22-.98.22h-3.21c-.34.03-.69-.05-.98-.22a1.1 1.1 0 0 1-.27-.88v-3.58z"/><path id="jyh3T" d="M349.31 749.05c.04.24.06.48.05.71v3.18h-.76v-4.68h.71l2.63 3.05 2.45-3.05h.8v4.68h-.84v-3.18l.04-.7-.3.53-2.06 2.6h-.22l-2.14-2.52c-.09-.13-.18-.35-.36-.62"/><path id="jyh3U" d="M362.6 751.7c0 .22-.04.36-.13.4a.6.6 0 0 1-.45.13h-3.12v-1.5h3.12a.5.5 0 0 1 .45.13c.11.12.16.28.13.44zm-.03-1.99c0 .27-.18.45-.54.4h-3.13v-1.28h3.13a.9.9 0 0 1 .4.09c.1.04.14.13.14.3zm-4.56 3.23h4.01c.98 0 1.47-.31 1.47-.93v-.62c0-.57-.31-.84-.93-.92.57-.05.89-.31.89-.8v-.53a.8.8 0 0 0-.27-.7 1.39 1.39 0 0 0-.85-.23h-4.32z"/><path id="jyh3V" d="M365.98 752.89v-4.68h.89v4.68z"/><path id="jyh3W" d="M370.53 751.13h2.88l-1.42-2.39zm-1.92 1.76l2.94-4.68h.94l2.98 4.68h-.98l-.67-1.15h-3.6l-.67 1.15z"/><path id="jyh3X" d="M378.02 751.88c.13 0 .22 0 .26.04.05.05.05.1.05.23v.7l-.71.97h-.45l.62-.97h-.35c-.14 0-.23-.09-.23-.26v-.45c0-.13 0-.17.05-.22.04-.04.13-.04.27-.04z"/><path id="jyh3Y" d="M389.56 748.83h-3.74v3.4h3.74v-1.19l.9.18v.57c.04.32-.06.64-.28.89-.3.17-.63.25-.98.22h-2.98c-.34.03-.69-.05-.98-.22a1.1 1.1 0 0 1-.27-.89v-2.47c-.04-.32.06-.64.27-.88.18-.18.49-.22.98-.22h2.98c.35-.03.69.04.98.22.22.24.32.56.27.88v.44l-.89.13z"/><path id="jyh3Z" d="M393.7 751.13h2.9l-1.43-2.39zm-1.96 1.76l2.94-4.68h.94l2.98 4.68h-.98l-.67-1.15h-3.6l-.67 1.15z"/><path id="jyh3aa" d="M400.34 752.9v-4.69h.58l4.01 3.14c.22.17.43.37.62.57a7.53 7.53 0 0 1-.09-1.15v-2.56h.8v4.68h-.48l-4.15-3.27a3.28 3.28 0 0 0-.27-.22.83.83 0 0 1-.26-.3c.04.33.05.67.04 1v2.8z"/><path id="jyh3ab" d="M409.97 751.13h2.9l-1.43-2.39zm-1.96 1.76l2.94-4.68h.94l2.98 4.68h-.98l-.67-1.15h-3.6l-.67 1.15z"/><path id="jyh3ac" d="M419.46 748.83h-1.92v3.4h1.92c.61.04 1.23-.09 1.78-.36.42-.32.64-.84.58-1.36a1.45 1.45 0 0 0-.58-1.33 3.6 3.6 0 0 0-1.78-.35zm.13-.62c.7-.04 1.4.08 2.05.36.35.17.63.45.8.8.2.34.3.74.32 1.14.06.83-.38 1.6-1.12 1.99a4.6 4.6 0 0 1-2.05.35h-2.94v-4.68h2.94z"/><path id="jyh3ad" d="M425.92 751.13h2.9l-1.43-2.39zm-1.96 1.76l2.94-4.68h.94l2.98 4.68h-.98l-.67-1.15h-3.6l-.67 1.15z"/></defs><g><g transform="translate(-181 -701)"><g><use fill="#fff" xlink:href="#jyh3a"/></g><g><g><use fill="#fff" xlink:href="#jyh3b"/></g><g><use fill="#fff" xlink:href="#jyh3c"/></g><g><use fill="#fff" xlink:href="#jyh3d"/></g><g><use fill="#fff" xlink:href="#jyh3e"/></g><g><use fill="#fff" xlink:href="#jyh3f"/></g><g><use fill="#fff" xlink:href="#jyh3g"/></g><g><use fill="#fff" xlink:href="#jyh3h"/></g><g><use fill="#e62b1e" xlink:href="#jyh3i"/></g><g><use fill="#e62b1e" xlink:href="#jyh3j"/></g><g><use fill="#e62b1e" xlink:href="#jyh3k"/></g><g><use fill="#e62b1e" xlink:href="#jyh3l"/></g><g><use fill="#fff" xlink:href="#jyh3m"/></g><g><use fill="#e62b1e" xlink:href="#jyh3n"/></g><g><use fill="#6e7072" xlink:href="#jyh3o"/></g><g><use fill="#6e7072" xlink:href="#jyh3p"/></g><g><use fill="#6e7072" xlink:href="#jyh3q"/></g><g><use fill="#6e7072" xlink:href="#jyh3r"/></g><g><use fill="#6e7072" xlink:href="#jyh3s"/></g><g><use fill="#6e7072" xlink:href="#jyh3t"/></g><g><use fill="#6e7072" xlink:href="#jyh3u"/></g><g><use fill="#6e7072" xlink:href="#jyh3v"/></g><g><use fill="#6e7072" xlink:href="#jyh3w"/></g><g><use fill="#6e7072" xlink:href="#jyh3x"/></g><g><use xlink:href="#jyh3y"/></g><g><use xlink:href="#jyh3z"/></g><g><use xlink:href="#jyh3A"/></g><g><use xlink:href="#jyh3B"/></g><g><use xlink:href="#jyh3C"/></g><g><use xlink:href="#jyh3D"/></g><g><use xlink:href="#jyh3E"/></g><g><use xlink:href="#jyh3F"/></g><g><use xlink:href="#jyh3G"/></g><g><use fill="#fff" xlink:href="#jyh3H"/></g><g><use fill="#fff" xlink:href="#jyh3I"/></g><g><use fill="#fff" xlink:href="#jyh3J"/></g><g><use fill="#fff" xlink:href="#jyh3K"/></g><g><use fill="#fff" xlink:href="#jyh3L"/></g><g><use fill="#fff" xlink:href="#jyh3M"/></g><g><use fill="#fff" xlink:href="#jyh3N"/></g><g><use fill="#fff" xlink:href="#jyh3O"/></g><g><use fill="#fff" xlink:href="#jyh3P"/></g><g><use fill="#fff" xlink:href="#jyh3Q"/></g><g><use fill="#fff" xlink:href="#jyh3R"/></g><g><use fill="#fff" xlink:href="#jyh3S"/></g><g><use fill="#fff" xlink:href="#jyh3T"/></g><g><use fill="#fff" xlink:href="#jyh3U"/></g><g><use fill="#fff" xlink:href="#jyh3V"/></g><g><use fill="#fff" xlink:href="#jyh3W"/></g><g><use fill="#fff" xlink:href="#jyh3X"/></g><g><use fill="#fff" xlink:href="#jyh3Y"/></g><g><use fill="#fff" xlink:href="#jyh3Z"/></g><g><use fill="#fff" xlink:href="#jyh3aa"/></g><g><use fill="#fff" xlink:href="#jyh3ab"/></g><g><use fill="#fff" xlink:href="#jyh3ac"/></g><g><use fill="#fff" xlink:href="#jyh3ad"/></g></g></g></g></svg>