<svg width="44" height="24" viewBox="0 0 44 24" version="1.1" xmlns="http://www.w3.org/2000/svg"><title>trees</title><g id="Design" stroke="none" stroke-width="1" fill="none" fill-rule="evenodd"><g id="Make-a-Booking:-Step-2" transform="translate(-788 -2534)" fill="#959595" fill-rule="nonzero"><g id="days" transform="translate(303 2370)"><g id="Group-15" transform="translate(0 69)"><g id="Group-30" transform="translate(168)"><g id="Group-20" transform="translate(233)"><g id="Group-17" transform="translate(31 22)"><g id="trees" transform="translate(53 73)"><path d="M30.919 22.32l-6.77-11.726-.415-.718L18.207.303a.605.605 0 0 0-1.049 0L13.464 6.7v.001l-.895 1.549-1.524-2.553a.606.606 0 0 0-1.04 0L.085 22.313a.605.605 0 0 0 .52.915h29.79a.605.605 0 0 0 .524-.908zM4.97 22.017H1.672l2.625-4.397c.159.152.345.278.555.37.62.27 1.318.192 1.864-.209l2.63-1.93a.673.673 0 0 1 .837.036l2.422 2.128a1.863 1.863 0 0 0 1.392.461 1.865 1.865 0 0 0 1.3-.678l.906-1.1 3.176 5.32H4.97zm11.831-6.677L13.28 9.442l.838-1.452.873.873a1.707 1.707 0 0 0 2.412 0 .492.492 0 0 1 .769.088l1.81 2.899a1.71 1.71 0 0 0 2.333.553l1.095-.667 5.936 10.282h-8.557l-3.987-6.678z" id="Shape"/><path d="M37.708 16.192c-.81.462-1.697.77-2.619.912.323.366.698.685 1.111.944a.304.304 0 0 1-.122.563 4.45 4.45 0 0 1-.581.026 7.13 7.13 0 0 1-3.441-.833v-2.445 6.963c0 .368-.166.667-.37.667-.205 0-.37-.299-.37-.667v-4.518a7.13 7.13 0 0 1-3.464.837c-.352 0-.581-.026-.581-.026a.304.304 0 0 1-.122-.563c1.314-.789 2.314-2.533 2.848-3.57-.52.186-1.06.31-1.608.37a.304.304 0 0 1-.192-.555c1.277-.819 1.989-2.334 2.307-3.193a2.04 2.04 0 0 1-1.122-.078.304.304 0 0 1-.037-.548c1.248-.692 2.04-3.26 2.04-3.285a.304.304 0 0 1 .582 0c.011.026.796 2.585 2.04 3.285a.304.304 0 0 1-.036.548 2.044 2.044 0 0 1-.704.122c-.14 0-.281-.016-.418-.048.3.793.955 2.17 2.066 3.015a17.03 17.03 0 0 0 1.111-1.948 8.57 8.57 0 0 1-1.959.452.37.37 0 0 1-.263-.682c1.563-1.003 2.448-2.851 2.819-3.9a2.488 2.488 0 0 1-1.374-.093.37.37 0 0 1-.045-.666c1.522-.86 2.489-3.985 2.489-4.015a.37.37 0 0 1 .37-.263.37.37 0 0 1 .37.263c.008.034.971 3.16 2.49 4.015a.37.37 0 0 1-.045.667 2.493 2.493 0 0 1-1.37.092c.389 1.049 1.259 2.9 2.818 3.9a.37.37 0 0 1-.237.682 8.558 8.558 0 0 1-1.96-.452c.627 1.263 1.864 3.396 3.482 4.36a.37.37 0 0 1-.151.684c-.011 0-.278.03-.711.03a8.633 8.633 0 0 1-4.152-.99v6.11c0 .347-.2.628-.445.628s-.444-.28-.444-.627v-6.17z" id="Shape" transform="matrix(-1 0 0 1 70.79 0)"/></g></g></g></g></g></g></g></g></svg>