<svg width="47" height="24" viewBox="0 0 47 24" version="1.1" xmlns="http://www.w3.org/2000/svg"><title>trees copy 2</title><g id="Design" stroke="none" stroke-width="1" fill="none" fill-rule="evenodd"><g id="Make-a-Booking:-Step-2" transform="translate(-1020 -2534)" fill="#959595" fill-rule="nonzero"><g id="days" transform="translate(303 2370)"><g id="Group-15" transform="translate(0 69)"><g id="Group-30" transform="translate(168)"><g id="Group-29" transform="translate(466)"><g id="Group-18" transform="translate(0 22)"><g id="trees-copy-2" transform="translate(83 73)"><path d="M43.575 17.096l-.014.008a7.626 7.626 0 0 1-2.56-.879v6.137c0 .346-.2.627-.445.627s-.444-.28-.444-.627V16.27c-.772.419-1.61.7-2.479.834l-.014-.008a8.633 8.633 0 0 1-1.717.145c-.434 0-.7-.03-.711-.03a.37.37 0 0 1-.152-.685c1.61-.957 2.841-3.072 3.47-4.337a8.57 8.57 0 0 1-1.898.43.37.37 0 0 1-.202-.016.37.37 0 0 1-.085-.666c1.556-.998 2.426-2.845 2.816-3.894a2.325 2.325 0 0 1-.512.05 2.493 2.493 0 0 1-.856-.148.37.37 0 0 1-.044-.667c1.518-.855 2.481-3.981 2.489-4.015a.37.37 0 0 1 .38-.263h.016a.37.37 0 0 1 .365.263c.007.034.97 3.16 2.489 4.015a.37.37 0 0 1-.045.667 2.493 2.493 0 0 1-.88.148 2.35 2.35 0 0 1-.488-.05c.39 1.05 1.26 2.896 2.816 3.894a.37.37 0 0 1-.084.666.37.37 0 0 1-.203.016 8.57 8.57 0 0 1-1.898-.43c.629 1.265 1.861 3.38 3.47 4.337a.37.37 0 0 1-.151.685c-.011 0-.278.03-.711.03a8.633 8.633 0 0 1-1.718-.145z" id="Shape" transform="matrix(-1 0 0 1 81.194 0)"/><path d="M30.919 22.32l-6.77-11.726-.415-.718L18.207.303a.605.605 0 0 0-1.049 0L13.464 6.7v.001l-.895 1.549-1.524-2.553a.606.606 0 0 0-1.04 0L.085 22.313a.605.605 0 0 0 .52.915h29.79a.605.605 0 0 0 .524-.908zM4.97 22.017H1.672l2.625-4.397c.159.152.345.278.555.37.62.27 1.318.192 1.864-.209l2.63-1.93a.673.673 0 0 1 .837.036l2.422 2.128a1.863 1.863 0 0 0 1.392.461 1.865 1.865 0 0 0 1.3-.678l.906-1.1 3.176 5.32H4.97zm11.831-6.677L13.28 9.442l.838-1.452.873.873a1.707 1.707 0 0 0 2.412 0 .492.492 0 0 1 .769.088l1.81 2.899a1.71 1.71 0 0 0 2.333.553l1.095-.667 5.936 10.282h-8.557l-3.987-6.678zm22.117 6.98l-8.35-14.069-1.524-2.553a.606.606 0 0 0-1.04 0l-3.543 5.934L30 22.32c-.112.187-12.029.412-11.921.602.107.19.309.306.526.306h19.79a.605.605 0 0 0 .524-.908zM30 22l-3-6 .345-.15a.673.673 0 0 1 .838.037l2.422 2.128a1.863 1.863 0 0 0 1.392.461 1.865 1.865 0 0 0 1.3-.678l.906-1.1 3.176 5.32L30 22z" id="Shape-Copy-6"/></g></g></g></g></g></g></g></g></svg>