<svg width="38" height="18" viewBox="0 0 38 18" version="1.1" xmlns="http://www.w3.org/2000/svg"><title>noun_576444_cc</title><g id="Design" stroke="none" stroke-width="1" fill="none" fill-rule="evenodd"><g id="Home" transform="translate(-1092 -6814)" fill="#FFF" fill-rule="nonzero"><g id="Footer" transform="translate(0 6719)"><g id="First-section" transform="translate(180 70)"><g id="Menu" transform="translate(438 24)"><g id="Item" transform="translate(474)"><g id="noun_576444_cc" transform="translate(0 1)"><path d="M37.817 15.858c-2.344-1.708-4.275-3.72-6.354-5.73-.87-.836-1.785-1.708-2.645-2.617.073-.156.824-.156 1.016-.037.824.496 1.767.257 2.646.762 1.703 1.02 2.874 3.03 4.788 3.637.265.091.503-.294.265-.487-1.153-.992-2.325-1.892-3.506-2.93-1.099-.982-4.495-4.774-4.495-4.774s-2.765 1.175-2.875 1.212L22.308 0s-3.68 3.719-4.77 5.473c-.576.33-1.126.606-1.702.863-.531-.726-2.271-2.81-2.271-2.81s-2.875 3.03-3.863 4.095c-.55.615-2.61.762-3.14 1.405-.376-.11-2.418 3.269-3.47 3.985-1.181.836-2.042 1.754-3.077 2.773-.274.276 3.214-.716 3.525-.762.339-.046 3.699 2.544 4.349 2.92.805.45.055-3.232 0-4.518.293.12.686.156.998.083 1.19.909 2.682 1.598 3.497 2.46.75.772-1.053-3.222-1.29-3.828-.184-.57 2.81-4.288 2.947-5.16.174-.836.174-.267.476.229.302.643.449 1.304.88 1.855 1.702 2.36 10.152 9.265 12.423 8.925.503-.074-5.365-5.041-6.006-5.51 0-.073-.037-.11-.037-.146 1.557.486 3.058 1.092 4.688 1.331.769.11 1.29-.918.54-1.295a19.638 19.638 0 0 0-3.287-1.478c-.659-.422-1.3-.799-1.904-1.221-.641-.45-1.126-1.02-1.63-1.635l.11-.22a5.807 5.807 0 0 0 1.181-2.543v-.074c.302-.68.568-1.359.842-2.057v-.073c.568.532 2.518 3.792 2.518 3.875-.11 2.966 11.142 8.879 12.57 9.669.476.266.824-.414.412-.753z" id="Shape"/></g></g></g></g></g></g></g></svg>