<svg xmlns="http://www.w3.org/2000/svg" xmlns:xlink="http://www.w3.org/1999/xlink" width="38" height="18" viewBox="0 0 38 18"><defs><path id="vyp7a" d="M691.82 35.86c-2.35-1.71-4.28-3.72-6.36-5.73-.87-.84-1.78-1.71-2.64-2.62.07-.16.82-.16 1.01-.04.83.5 1.77.26 2.65.77 1.7 1.02 2.87 3.03 4.79 3.63.26.1.5-.3.26-.48-1.15-1-2.32-1.9-3.5-2.93-1.1-.99-4.5-4.78-4.5-4.78s-2.76 1.18-2.87 1.21L676.3 20s-3.68 3.72-4.77 5.47c-.58.33-1.13.6-1.7.87-.54-.73-2.27-2.81-2.27-2.81s-2.88 3.03-3.87 4.1c-.55.6-2.6.75-3.14 1.4-.37-.11-2.42 3.26-3.47 3.98-1.18.84-2.04 1.75-3.07 2.77-.28.28 3.2-.71 3.52-.76.34-.04 3.7 2.55 4.35 2.92.8.45.05-3.23 0-4.52.3.12.69.16 1 .09 1.19.9 2.68 1.6 3.5 2.46.74.77-1.06-3.23-1.3-3.83-.18-.57 2.81-4.29 2.95-5.16.18-.84.18-.27.48.23.3.64.45 1.3.88 1.85 1.7 2.36 10.15 9.27 12.42 8.93.5-.08-5.37-5.04-6-5.51 0-.07-.04-.11-.04-.15 1.55.49 3.06 1.1 4.68 1.33.77.11 1.3-.92.54-1.3a19.64 19.64 0 0 0-3.28-1.47c-.66-.42-1.3-.8-1.9-1.22a8.34 8.34 0 0 1-1.64-1.64l.11-.22a5.8 5.8 0 0 0 1.19-2.54v-.07c.3-.68.56-1.36.84-2.06v-.07c.57.53 2.52 3.79 2.52 3.87-.11 2.97 11.14 8.88 12.57 9.67.47.27.82-.41.4-.75z"/></defs><use fill="#fff" xlink:href="#vyp7a" opacity=".7" transform="translate(-654 -20)"/></svg>