<svg width="28" height="28" viewBox="0 0 28 28" version="1.1" xmlns="http://www.w3.org/2000/svg"><title>if_icon-ios7-search_211818</title><g id="Design" stroke="none" stroke-width="1" fill="none" fill-rule="evenodd"><g id="Home:-Menu-Dropdown" transform="translate(-804 -135)" fill="#EE2E24" fill-rule="nonzero"><g id="Search" transform="translate(180 131)"><g id="if_icon-ios7-search_211818" transform="translate(624 4)"><path d="M28 26.301l-8.261-8.269a11.069 11.069 0 0 0 2.428-6.934C22.167 4.966 17.2 0 11.083 0 4.958 0 0 4.973 0 11.098c0 6.125 4.966 11.098 11.083 11.098 2.64 0 5.06-.926 6.964-2.465L26.3 28l1.7-1.699zM4.069 18.127a9.86 9.86 0 0 1-2.902-7.022 9.89 9.89 0 0 1 2.902-7.022 9.858 9.858 0 0 1 7.014-2.916 9.863 9.863 0 0 1 7.015 2.909A9.86 9.86 0 0 1 21 11.098a9.89 9.89 0 0 1-2.902 7.022 9.863 9.863 0 0 1-7.015 2.91 9.826 9.826 0 0 1-7.014-2.903z" id="Shape"/></g></g></g></g></svg>