<svg width="35" height="35" viewBox="0 0 35 35" version="1.1" xmlns="http://www.w3.org/2000/svg"><title>Skype</title><g id="Design" stroke="none" stroke-width="1" fill="none" fill-rule="evenodd"><g id="Who-We-Are" transform="translate(-181 -6339)" fill="#231F20" fill-rule="nonzero"><g id="Contact-us" transform="translate(180 6100)"><g id="1" transform="translate(1 229)"><g id="Group-6"><g id="Group-11"><g id="Group-9"><path d="M33.539 30.034c.13-.827.2-1.672.2-2.535 0-8.968-7.27-16.238-16.24-16.238-.86 0-1.708.07-2.534.2A9.76 9.76 0 0 0 9.813 10 9.812 9.812 0 0 0 1.46 24.966a16.66 16.66 0 0 0-.198 2.533c0 8.97 7.27 16.237 16.237 16.237.861 0 1.71-.066 2.535-.197A9.78 9.78 0 0 0 25.186 45C30.607 45 35 40.606 35 35.186a9.757 9.757 0 0 0-1.461-5.152zm-8.322 4.825c-.688.986-1.698 1.756-3.018 2.31-1.322.555-2.885.831-4.69.831-2.164 0-3.955-.377-5.369-1.138a6.946 6.946 0 0 1-2.444-2.188c-.628-.912-.946-1.806-.946-2.677 0-.514.197-.96.58-1.325.387-.367.886-.551 1.475-.551.482 0 .896.145 1.233.431.335.286.615.703.845 1.252.275.637.574 1.169.892 1.593.316.42.761.77 1.337 1.044.57.274 1.329.412 2.277.412 1.3 0 2.349-.28 3.152-.832.807-.556 1.195-1.234 1.195-2.052 0-.653-.21-1.171-.638-1.576-.433-.41-.991-.721-1.685-.939-.696-.22-1.63-.453-2.801-.698-1.573-.342-2.888-.74-3.953-1.196-1.067-.459-1.916-1.085-2.545-1.877-.631-.8-.946-1.793-.946-2.97 0-1.122.332-2.126.997-3 .664-.875 1.626-1.546 2.88-2.013 1.248-.466 2.719-.7 4.403-.7 1.348 0 2.513.155 3.5.464.983.311 1.803.721 2.459 1.237.651.513 1.13 1.056 1.434 1.624.304.57.456 1.128.456 1.672 0 .505-.196.964-.58 1.366a1.923 1.923 0 0 1-1.447.606c-.517 0-.922-.12-1.203-.37-.274-.243-.56-.63-.872-1.169-.393-.752-.863-1.338-1.41-1.757-.534-.412-1.413-.626-2.636-.623-1.132 0-2.038.23-2.722.68-.687.458-1.016.989-1.018 1.61.001.39.114.72.34 1 .23.284.55.53.962.737.411.21.83.373 1.25.49.426.12 1.132.294 2.113.524 1.231.264 2.348.559 3.35.88 1.002.324 1.857.714 2.562 1.178a4.979 4.979 0 0 1 1.665 1.766c.4.714.599 1.587.599 2.613.002 1.236-.344 2.347-1.033 3.331z" id="Skype"/></g></g></g></g></g></g></g></svg>