<svg width="299" height="299" viewBox="0 0 299 299" version="1.1" xmlns="http://www.w3.org/2000/svg"><title>Shape</title><defs><linearGradient x1="110.697%" y1="18.766%" x2="22.192%" y2="63.73%" id="linearGradient-1"><stop stop-color="#FFF" offset="0%"/><stop stop-color="#000" offset="100%"/></linearGradient></defs><g id="Design" stroke="none" stroke-width="1" fill="none" fill-rule="evenodd" opacity=".05"><g id="Who-We-Are" transform="translate(-1175 -7456)" fill="url(#linearGradient-1)" fill-rule="nonzero"><g id="Introduction" transform="translate(-7 387)"><g id="Content"><g id="section-background-concept-03-(1)" transform="translate(0 136)"><path d="M1479.516 7076.543H1454l6.216-6.216a6.04 6.04 0 0 0-8.54-8.54l-14.754 14.756h-26.399l18.228-18.228a6.04 6.04 0 0 0-8.54-8.54l-26.766 26.769h-47.287l33.437-33.437h37.854a6.039 6.039 0 0 0 0-12.077h-25.777l18.666-18.666h37.854a6.039 6.039 0 0 0 0-12.076h-25.777l18.042-18.042a6.04 6.04 0 0 0-8.54-8.54l-18.042 18.042v-25.78a6.039 6.039 0 0 0-12.076 0v37.855l-18.666 18.666v-25.777a6.039 6.039 0 0 0-12.077 0v37.854l-33.437 33.437v-47.287l26.768-26.767a6.04 6.04 0 0 0-8.54-8.54l-18.227 18.228v-26.398l26.767-26.767a6.04 6.04 0 0 0-8.54-8.54l-18.227 18.229v-25.517a6.039 6.039 0 1 0-12.08 0l.001 25.516-18.228-18.228a6.04 6.04 0 0 0-8.54 8.54l26.769 26.767v26.398l-18.228-18.228a6.04 6.04 0 0 0-8.54 8.54l26.768 26.766v47.288l-33.437-33.438v-37.854a6.039 6.039 0 0 0-12.076 0v25.777l-18.667-18.666v-37.853a6.039 6.039 0 0 0-12.076 0v25.777l-18.044-18.042a6.04 6.04 0 0 0-8.54 8.54l18.042 18.041h-25.777a6.039 6.039 0 0 0 0 12.077h37.854l18.667 18.666h-25.778a6.039 6.039 0 0 0 0 12.076h37.854l33.438 33.438h-47.288l-26.767-26.768a6.04 6.04 0 0 0-8.54 8.54l18.229 18.227h-26.398l-26.767-26.768a6.04 6.04 0 0 0-8.54 8.54l18.228 18.227h-25.517a6.039 6.039 0 1 0 0 12.079h25.516l-18.228 18.228a6.04 6.04 0 0 0 8.54 8.54l26.768-26.769h26.398l-18.228 18.228a6.04 6.04 0 0 0 8.54 8.54l26.767-26.768h47.287l-33.437 33.437h-37.854a6.039 6.039 0 0 0 0 12.076h25.777l-18.666 18.667h-37.855a6.039 6.039 0 0 0 0 12.076h25.777l-18.042 18.044a6.04 6.04 0 0 0 8.54 8.54l18.042-18.042v25.777a6.039 6.039 0 0 0 12.076 0v-37.854l18.667-18.666v25.777a6.039 6.039 0 0 0 12.076 0v-37.854l33.438-33.437v47.287l-26.768 26.767a6.04 6.04 0 0 0 8.54 8.54l18.227-18.229v26.399l-26.768 26.767a6.04 6.04 0 0 0 8.54 8.54l18.227-18.229v25.516a6.039 6.039 0 0 0 12.077 0v-25.516l18.228 18.228a6.021 6.021 0 0 0 4.27 1.768 6.04 6.04 0 0 0 4.27-10.308l-26.768-26.766v-26.399l18.228 18.228a6.021 6.021 0 0 0 4.27 1.769 6.04 6.04 0 0 0 4.27-10.308l-26.768-26.767v-47.287l33.437 33.437v37.854a6.039 6.039 0 0 0 12.076 0v-25.777l18.666 18.666v37.854a6.039 6.039 0 0 0 12.077 0v-25.777l18.042 18.042a6.021 6.021 0 0 0 4.27 1.768 6.04 6.04 0 0 0 4.27-10.308l-18.043-18.042h25.777a6.039 6.039 0 0 0 0-12.076h-37.854l-18.666-18.666h25.778a6.039 6.039 0 0 0 0-12.077h-37.852l-33.436-33.437h47.287l26.767 26.768a6.021 6.021 0 0 0 4.27 1.768 6.04 6.04 0 0 0 4.27-10.308l-18.228-18.227h26.398l26.767 26.767a6.021 6.021 0 0 0 4.27 1.769 6.04 6.04 0 0 0 4.27-10.308L1454 7088.62h25.516a6.039 6.039 0 0 0 0-12.078z" id="Shape" transform="rotate(75 1331.58 7082.58)"/></g></g></g></g></g></svg>