<svg width="420" height="496" viewBox="0 0 420 496" version="1.1" xmlns="http://www.w3.org/2000/svg"><title>Shape</title><defs><linearGradient x1="85.137%" y1="71.934%" x2="0%" y2="32.939%" id="linearGradient-1"><stop stop-color="#FFF" offset="0%"/><stop stop-color="#000" offset="100%"/></linearGradient></defs><g id="Design" stroke="none" stroke-width="1" fill="none" fill-rule="evenodd" opacity=".05"><g id="Make-a-Booking:-Step-2" transform="translate(-1080 -1322)" fill="url(#linearGradient-1)" fill-rule="nonzero"><path d="M1573.959 1559.961h-42.423l10.335-10.335c3.92-3.92 3.92-10.277 0-14.198-3.92-3.919-10.276-3.919-14.198 0l-24.532 24.534h-43.89l30.306-30.306c3.92-3.92 3.92-10.277 0-14.198-3.92-3.919-10.276-3.919-14.198 0l-44.502 44.505h-78.62l55.593-55.593h62.936c5.544 0 10.04-4.496 10.04-10.039 0-5.544-4.497-10.039-10.04-10.039h-42.857l31.034-31.035h62.936c5.544 0 10.04-4.496 10.04-10.039 0-5.544-4.497-10.039-10.04-10.039h-42.857l29.997-29.997c3.92-3.92 3.92-10.277 0-14.198-3.92-3.919-10.276-3.919-14.198 0l-29.997 29.997v-42.86c0-5.545-4.496-10.04-10.039-10.04-5.542 0-10.038 4.496-10.038 10.04v62.935l-31.035 31.035v-42.858c0-5.544-4.496-10.039-10.04-10.039-5.542 0-10.038 4.496-10.038 10.04v62.936l-55.593 55.593v-78.62l44.504-44.503c3.92-3.92 3.92-10.277 0-14.198-3.92-3.917-10.274-3.919-14.198 0l-30.305 30.306v-43.89l44.504-44.503c3.92-3.92 3.92-10.277 0-14.198-3.92-3.917-10.274-3.919-14.198 0l-30.305 30.306v-42.424c-.005-5.543-4.5-10.039-10.044-10.039-5.544 0-10.039 4.496-10.039 10.039v42.423l-30.306-30.306c-3.92-3.919-10.276-3.919-14.198 0-3.92 3.92-3.92 10.277 0 14.198l44.505 44.503v43.89l-30.306-30.306c-3.92-3.919-10.276-3.919-14.198 0-3.92 3.92-3.92 10.277 0 14.198l44.505 44.503v78.62l-55.593-55.593v-62.937c0-5.544-4.496-10.039-10.039-10.039-5.544 0-10.039 4.496-10.039 10.04v42.857l-31.035-31.035v-62.935c0-5.544-4.496-10.039-10.039-10.039-5.543 0-10.038 4.496-10.038 10.04v42.856l-30.001-29.997c-3.921-3.919-10.276-3.919-14.198 0-3.92 3.92-3.92 10.277 0 14.198l29.997 29.997h-42.857c-5.544 0-10.04 4.496-10.04 10.04 0 5.543 4.497 10.038 10.04 10.038h62.936l31.034 31.035h-42.857c-5.544 0-10.04 4.496-10.04 10.04 0 5.543 4.497 10.038 10.04 10.038h62.936l55.593 55.593h-78.62l-44.502-44.504c-3.92-3.918-10.274-3.919-14.198 0-3.92 3.92-3.92 10.277 0 14.198l30.306 30.305h-43.89l-44.503-44.504c-3.92-3.918-10.275-3.919-14.198 0-3.92 3.92-3.92 10.277 0 14.198l30.306 30.305h-42.424c-5.543.004-10.039 4.5-10.039 10.043 0 5.545 4.496 10.04 10.039 10.04h42.423l-30.306 30.306c-3.92 3.92-3.92 10.277 0 14.198a10.01 10.01 0 0 0 7.099 2.94c2.569 0 5.138-.981 7.099-2.94l44.504-44.505h43.89l-30.306 30.306c-3.92 3.92-3.92 10.277 0 14.198a10.01 10.01 0 0 0 7.099 2.94c2.569 0 5.138-.981 7.099-2.94l44.503-44.505h78.62l-55.593 55.593h-62.936c-5.544 0-10.04 4.496-10.04 10.039 0 5.543 4.497 10.039 10.04 10.039h42.857l-31.034 31.035h-62.937c-5.544 0-10.04 4.496-10.04 10.039 0 5.543 4.497 10.039 10.04 10.039h42.857l-29.997 30c-3.92 3.92-3.92 10.278 0 14.199a10.01 10.01 0 0 0 7.099 2.94c2.569 0 5.138-.981 7.099-2.94l29.997-29.997v42.857c0 5.544 4.496 10.039 10.039 10.039 5.542 0 10.038-4.496 10.038-10.04v-62.935l31.035-31.035v42.858c0 5.544 4.496 10.039 10.04 10.039 5.543 0 10.038-4.496 10.038-10.04v-62.936l55.594-55.593v78.62l-44.504 44.503c-3.92 3.92-3.92 10.277 0 14.198 3.921 3.918 10.276 3.92 14.198 0l30.305-30.306v43.89l-44.504 44.503c-3.92 3.92-3.92 10.277 0 14.198 3.921 3.919 10.276 3.92 14.198 0l30.305-30.306v42.423c0 5.544 4.496 10.039 10.039 10.039 5.544 0 10.039-4.496 10.039-10.039v-42.423l30.306 30.306a10.01 10.01 0 0 0 7.099 2.94c2.569 0 5.138-.981 7.099-2.94 3.92-3.92 3.92-10.277 0-14.198l-44.504-44.503v-43.89l30.306 30.306a10.01 10.01 0 0 0 7.099 2.94c2.569 0 5.138-.981 7.099-2.94 3.92-3.92 3.92-10.277 0-14.198l-44.504-44.503v-78.62l55.593 55.593v62.937c0 5.544 4.496 10.039 10.039 10.039 5.543 0 10.039-4.496 10.039-10.04v-42.857l31.035 31.035v62.936c0 5.544 4.496 10.039 10.039 10.039 5.542 0 10.038-4.496 10.038-10.04v-42.856l29.997 29.997a10.01 10.01 0 0 0 7.1 2.94c2.568 0 5.137-.981 7.098-2.94 3.92-3.92 3.92-10.277 0-14.198l-29.997-29.997h42.857c5.544 0 10.04-4.496 10.04-10.04 0-5.542-4.497-10.038-10.04-10.038h-62.936l-31.034-31.035h42.857c5.544 0 10.04-4.496 10.04-10.04 0-5.542-4.497-10.038-10.04-10.038h-62.931l-55.592-55.593h78.62l44.502 44.504a10.01 10.01 0 0 0 7.1 2.94c2.568 0 5.137-.981 7.098-2.94 3.92-3.92 3.92-10.277 0-14.198l-30.305-30.305h43.89l44.503 44.504a10.01 10.01 0 0 0 7.1 2.94c2.568 0 5.137-.981 7.098-2.94 3.92-3.92 3.92-10.277 0-14.198l-30.305-30.305h42.423c5.544 0 10.039-4.496 10.039-10.04-.002-5.548-4.498-10.043-10.041-10.043z" id="Shape" transform="rotate(75 1328 1570)"/></g></g></svg>