<svg width="16" height="18" viewBox="0 0 16 18" version="1.1" xmlns="http://www.w3.org/2000/svg"><title>noun_78887_cc</title><g id="Design" stroke="none" stroke-width="1" fill="none" fill-rule="evenodd"><g id="Home" transform="translate(-1304 -597)" fill="#FFF" fill-rule="nonzero"><g id="Weather-Widget" transform="translate(817 162)"><g id="noun_78887_cc" transform="translate(487 435)"><path id="Shape" d="M5.803 7.57l2.104 1.203V7.575l-1.57-.897 1.57-.869V4.622L5.803 5.785v-2.48h1.051V2.268H5.803V1.233H4.75v1.036H3.7v1.035h1.05V5.77L2.584 4.532l.528-.896-.91-.52-.527.896-.91-.52-.529.896.91.52-.529.895.91.52.529-.895 2.16 1.235-2.178 1.204-.515-.903-.918.507.516.903-.918.508.516.902.916-.507.516.903.918-.507-.516-.903L4.75 7.555v2.48H3.7v1.036h1.05v1.036h1.053V11.07h1.051v-1.035H5.803zm6.312 4.092v-1.626h-1.053v1.626c-.906.231-1.578 1.034-1.578 1.998 0 1.144.942 2.071 2.104 2.071 1.162 0 2.104-.927 2.104-2.07 0-.965-.671-1.768-1.577-1.999"/><path d="M14.219 10.432V2.787c0-1.43-1.178-2.59-2.63-2.59-1.453 0-2.63 1.16-2.63 2.59v7.645A4.108 4.108 0 0 0 7.38 13.66c0 2.284 1.887 4.142 4.208 4.142 2.32 0 4.208-1.858 4.208-4.142a4.11 4.11 0 0 0-1.578-3.228m-2.63 6.335c-1.743 0-3.157-1.391-3.157-3.107 0-1.15.635-2.15 1.579-2.688V2.787c0-.857.707-1.554 1.578-1.554.87 0 1.577.697 1.577 1.554v8.185a3.095 3.095 0 0 1 1.578 2.688c0 1.716-1.413 3.107-3.155 3.107" id="Shape"/></g></g></g></g></svg>