<svg width="28" height="28" viewBox="0 0 28 28" version="1.1" xmlns="http://www.w3.org/2000/svg"><title>if_Translate_692155</title><g id="Design" stroke="none" stroke-width="1" fill="none" fill-rule="evenodd"><g id="Home:-Menu-Dropdown" transform="translate(-1291 -132)" fill="#EE2E24" fill-rule="nonzero"><g id="Search" transform="translate(959 131)"><g id="if_Translate_692155" transform="translate(332 1)"><path d="M19.833 23.333H2.917A2.92 2.92 0 0 1 0 20.417v-17.5A2.92 2.92 0 0 1 2.917 0h9.333c.25 0 .471.159.552.394l7.583 22.167a.586.586 0 0 1-.552.772zM2.917 1.167c-.965 0-1.75.785-1.75 1.75v17.5c0 .964.785 1.75 1.75 1.75h16.1l-7.183-21H2.917z" id="Shape"/><path d="M25.083 28H15.75a.583.583 0 0 1-.546-.378l-1.75-4.667a.584.584 0 0 1 1.092-.41l1.609 4.288h8.928c.965 0 1.75-.785 1.75-1.75v-17.5c0-.965-.785-1.75-1.75-1.75H14a.584.584 0 0 1 0-1.166h11.083A2.92 2.92 0 0 1 28 7.583v17.5A2.92 2.92 0 0 1 25.083 28z" id="Shape"/><path d="M15.75 28a.584.584 0 0 1-.439-.968l4.084-4.667a.583.583 0 1 1 .878.769L16.19 27.8a.586.586 0 0 1-.44.2zm-4.667-11.667a.582.582 0 0 1-.55-.387L8.168 9.318 5.8 15.946a.584.584 0 0 1-1.1-.392l2.917-8.167c.166-.464.933-.464 1.098 0l2.917 8.167a.583.583 0 0 1-.549.78z" id="Shape"/><path d="M9.333 12.833H7a.584.584 0 0 1 0-1.166h2.333a.584.584 0 0 1 0 1.166zm15.75 0h-8.166a.584.584 0 0 1 0-1.166h8.166a.584.584 0 0 1 0 1.166z" id="Shape"/><path d="M20.417 12.833a.584.584 0 0 1-.584-.583v-1.167a.584.584 0 0 1 1.167 0v1.167a.584.584 0 0 1-.583.583zm-1.75 7a.583.583 0 0 1-.338-1.058c2.553-1.814 4.421-5.515 4.421-6.524a.584.584 0 0 1 1.167 0c0 1.538-2.248 5.583-4.912 7.476a.592.592 0 0 1-.338.106z" id="Shape"/><path d="M23.333 21a.576.576 0 0 1-.393-.153c-.423-.387-4.15-3.83-4.814-5.461a.583.583 0 0 1 1.08-.439c.478 1.175 3.426 4.036 4.522 5.04A.584.584 0 0 1 23.333 21z" id="Shape"/></g></g></g></g></svg>